<?xml version="1.0" encoding="utf-8"?>
<!-- Generator: Adobe Illustrator 27.5.0, SVG Export Plug-In . SVG Version: 6.00 Build 0)  -->
<svg version="1.1" xmlns="http://www.w3.org/2000/svg" xmlns:xlink="http://www.w3.org/1999/xlink" x="0px" y="0px"
	 viewBox="0 0 500 500" style="enable-background:new 0 0 500 500;" xml:space="preserve">
<g id="BACKGROUND">
	<rect style="fill:#FFFFFF;" width="500" height="500"/>
</g>
<g id="OBJECTS">
	<g>
		<g>
			<path style="fill:#DDEDEE;" d="M126.684,349.587c-20.215-1.115-40.775-4.749-58.649-14.258
				c-17.873-9.509-32.568-27.834-31.667-48.06c1.259-28.266,30.221-47.043,40.172-73.529c9.774-26.015-0.112-55.176,3.138-82.775
				c2.611-22.183,14.589-43.627,33.579-55.387c18.989-11.76,44.923-12.534,63.333,0.115c12.376,8.503,20.537,21.921,32.213,31.364
				c13.998,11.321,32.435,16.249,50.437,16.1c18.002-0.149,35.674-5.053,52.418-11.667c18.137-7.165,35.825-16.47,55.182-18.834
				c19.357-2.364,41.555,4.261,50.529,21.574c10.516,20.288-0.432,47.241,11.433,66.771c5.733,9.437,15.886,15.369,22.374,24.304
				c14.826,20.421,5.803,50.616-12.06,68.442c-8.676,8.658-19.685,16.299-22.896,28.128c-3.958,14.582,5.687,49.011-26.018,62.763
				c-23.343,10.125-51.345-5.337-66.047-16.505c-21.678-16.467-46.977-31.313-74.161-29.842
				c-21.561,1.166-38.562,17.354-58.671,25.219C168.117,352.585,147.107,350.714,126.684,349.587z"/>
		</g>
		<path style="fill:#5698B9;" d="M397.279,227.481c0.834,0.375,6.343,18.367,12.603,17.323
			c10.169-1.695-11.108-17.507-12.408-18.078c1.896,0.253,19.191,12.454,23.122,7.754c7.188-8.594-21.117-8.278-22.879-8.514
			c0.628-0.283,26.436-2.409,25.917-8.561c-1.051-12.48-25.218,7.393-25.666,7.59c1.045-1.501,18.887-17.196,12.143-22.638
			c-6.744-5.442-12.044,21.562-12.778,22.622c-0.191-3.489,3.168-22.82-4.431-22.031c-7.424,0.771,2.464,19.429,3.451,22.661
			c-0.328-0.555-8.905-10.909-11.004-10.332c-7.252,1.995,9.424,10.228,10.676,10.971c-4.605,2.171-9.384,4.432-14.083,6.386
			c-0.467,0.193-0.173,0.922,0.296,0.727c4.592-1.91,13.876-6.55,14.05-6.494c-0.385,1.133-4.272,13.035-2.027,15.059
			C399.949,247.049,397.406,227.952,397.279,227.481z"/>
		<path style="fill:#3D6C87;" d="M388.816,296.85c-0.029,0.914-14.566,12.862-11.216,18.252c5.441,8.756,11.955-16.94,11.988-18.359
			c0.489,1.849-4.204,22.488,1.639,24.332c10.684,3.373-0.391-22.678-0.844-24.397c0.501,0.472,12.298,23.525,17.789,20.702
			c11.138-5.726-16.443-20.5-16.796-20.839c1.786,0.394,23.095,10.912,25.557,2.604c2.463-8.309-24.525-2.922-25.784-3.197
			c3.153-1.505,22.307-5.764,18.682-12.49c-3.541-6.57-17.025,9.68-19.637,11.824c0.389-0.515,6.694-12.39,5.361-14.11
			c-4.607-5.945-5.867,12.61-6.077,14.05c-3.762-3.431-7.672-6.988-11.269-10.588c-0.357-0.358-0.919,0.191-0.56,0.551
			c3.516,3.518,11.342,10.334,11.357,10.517c-1.195,0.076-13.68,1.015-14.695,3.862C371.74,306.774,388.429,297.147,388.816,296.85z
			"/>
		<path style="fill:#294859;" d="M426.423,267.19c1.005-0.479,2.044-1.263,2.98-2.125c0.392-5.581,6.355-9.919,8.994-10.503
			c-0.005,4.153-4.154,9.281-8.187,10.63c-0.835,0.809-1.768,1.577-2.701,2.148c1.11,0.142,2.244,0.252,3.361,0.317
			c0.059-0.021,0.123-0.031,0.188-0.014c0.034,0.009,0.067,0.02,0.101,0.029c1.683,0.086,3.316,0.069,4.745-0.093
			c4.072-5.577,13.16-6.16,16.294-5.026c-2.788,4.384-10.689,6.99-15.763,5.582c-0.957,0.127-2.082,0.209-3.338,0.225
			c1.51,0.681,2.753,1.589,3.7,2.477c5.181,1.317,8.604,7.358,8.89,9.948c-4.326-0.474-9.222-5.586-9.787-9.876
			c-1.204-1.028-2.823-2.029-4.808-2.576c-2.212-0.087-4.7-0.366-7.289-0.917c0.648,0.807,1.334,1.796,1.948,2.832
			c4.559,3.122,5.401,10.33,4.628,12.892c-3.695-2.077-6.163-8.413-5.215-12.593c-0.758-1.277-1.634-2.493-2.404-3.355
			c-0.004-0.005-0.005-0.011-0.008-0.015c-0.549-0.132-1.102-0.274-1.656-0.432c-1.271-0.361-2.495-0.727-3.691-1.092
			c-0.045-0.005-0.087-0.017-0.126-0.038c-0.662-0.202-1.318-0.403-1.962-0.602c-0.41-0.126-0.817-0.252-1.224-0.377
			c0.447,0.617,0.824,1.328,1.123,2.061c3.918,3.836,3.582,11.012,2.412,13.401c-3.324-2.658-4.733-9.354-3.091-13.319
			c-0.41-0.959-0.95-1.859-1.604-2.497c-4.36-1.322-8.685-2.512-13.92-3.187c-0.179-0.023-0.305-0.188-0.283-0.366
			c0.001-0.006,0.002-0.011,0.003-0.017c0.031-0.17,0.19-0.289,0.364-0.266c4.265,0.55,7.922,1.436,11.48,2.456
			c0.009-0.004,0.013-0.013,0.023-0.017c0.903-0.357,1.734-0.906,2.466-1.517c0.462-5.529,6.366-9.813,8.987-10.394
			c-0.005,4.191-4.231,9.374-8.299,10.665c-0.661,0.586-1.413,1.124-2.23,1.538c0.511,0.151,1.022,0.304,1.533,0.458
			c0.071-0.004,0.14,0.019,0.201,0.061c0.748,0.227,1.496,0.458,2.251,0.69c0.641,0.198,1.293,0.398,1.951,0.599
			c0.997-0.255,2.66-1.096,4.334-2.552c0.451-5.537,6.364-9.83,8.988-10.411c-0.005,4.189-4.226,9.367-8.291,10.663
			c-1.422,1.287-2.868,2.156-3.971,2.622c0.899,0.271,1.814,0.541,2.754,0.808C422.701,266.523,424.5,266.902,426.423,267.19z"/>
		<path style="fill:#294859;" d="M91.899,227.423c-1.086,0.249-2.27,0.787-3.371,1.425c-1.598,5.362-8.363,8.297-11.065,8.292
			c0.909-4.052,6.075-8.153,10.306-8.592c0.991-0.608,2.069-1.155,3.104-1.509c-1.052-0.381-2.135-0.735-3.211-1.041
			c-0.062,0.008-0.127,0.003-0.187-0.027c-0.032-0.016-0.061-0.034-0.092-0.05c-1.624-0.451-3.221-0.79-4.651-0.943
			c-5.189,4.556-14.186,3.146-16.997,1.357c3.675-3.672,11.954-4.494,16.6-2.015c0.961,0.084,2.078,0.25,3.307,0.507
			c-1.326-0.993-2.34-2.151-3.072-3.223c-4.77-2.414-6.795-9.055-6.51-11.645c4.118,1.405,7.785,7.461,7.402,11.771
			c0.951,1.265,2.313,2.595,4.132,3.561c2.141,0.566,4.508,1.381,6.915,2.482c-0.457-0.929-0.911-2.043-1.284-3.188
			c-3.769-4.04-3.021-11.258-1.709-13.591c3.154,2.831,4.183,9.553,2.347,13.426c0.462,1.411,1.052,2.789,1.616,3.798
			c0.003,0.005,0.002,0.011,0.005,0.017c0.507,0.248,1.016,0.507,1.523,0.782c1.162,0.629,2.277,1.253,3.365,1.87
			c0.043,0.014,0.081,0.036,0.114,0.065c0.602,0.341,1.198,0.681,1.784,1.015c0.372,0.212,0.743,0.424,1.113,0.634
			c-0.302-0.7-0.515-1.475-0.647-2.256c-2.989-4.597-1.098-11.528,0.564-13.605c2.665,3.318,2.583,10.16,0.116,13.673
			c0.191,1.025,0.523,2.021,1.022,2.786c3.967,2.24,7.93,4.343,12.892,6.142c0.17,0.062,0.257,0.25,0.196,0.419
			c-0.002,0.005-0.004,0.01-0.006,0.016c-0.067,0.16-0.248,0.24-0.413,0.181c-4.043-1.466-7.419-3.127-10.67-4.897
			c-0.009,0.002-0.016,0.01-0.026,0.011c-0.959,0.152-1.89,0.506-2.737,0.944c-1.655,5.296-8.35,8.191-11.035,8.187
			c0.918-4.09,6.171-8.228,10.422-8.602c0.772-0.428,1.624-0.79,2.511-1.015c-0.466-0.258-0.931-0.519-1.396-0.781
			c-0.07-0.011-0.132-0.049-0.183-0.103c-0.68-0.385-1.361-0.773-2.047-1.164c-0.583-0.333-1.176-0.67-1.774-1.009
			c-1.029,0.032-2.835,0.49-4.786,1.547c-1.646,5.306-8.352,8.208-11.04,8.204c0.917-4.087,6.164-8.223,10.414-8.601
			c1.668-0.947,3.268-1.48,4.447-1.694c-0.818-0.46-1.653-0.923-2.512-1.388C95.387,228.884,93.713,228.123,91.899,227.423z"/>
		<path style="fill:#5698B9;" d="M85.036,268.378c-0.357,1.055-0.52,2.346-0.554,3.618c3.728,4.172,2.68,11.471,1.259,13.77
			c-2.974-2.899-3.757-9.448-1.913-13.281c0.002-1.163,0.102-2.367,0.343-3.434c-0.876,0.696-1.745,1.433-2.57,2.188
			c-0.026,0.057-0.063,0.109-0.121,0.145c-0.03,0.019-0.061,0.034-0.091,0.052c-1.236,1.147-2.361,2.329-3.241,3.466
			c1.159,6.807-4.759,13.729-7.757,15.185c-1.199-5.055,2.441-12.536,6.988-15.192c0.576-0.774,1.302-1.638,2.166-2.55
			c-1.541,0.608-3.058,0.865-4.355,0.926c-4.557,2.796-11.273,1.039-13.329-0.562c3.356-2.77,10.435-2.717,13.904-0.131
			c1.576-0.146,3.423-0.609,5.199-1.651c1.605-1.526,3.539-3.115,5.739-4.586c-1.031-0.098-2.218-0.295-3.388-0.578
			c-5.416,1.091-11.171-3.33-12.469-5.671c4.065-1.201,10.328,1.448,12.663,5.041c1.444,0.347,2.927,0.566,4.081,0.616
			c0.006,0,0.011,0.004,0.017,0.005c0.477-0.302,0.965-0.599,1.464-0.886c1.144-0.66,2.261-1.282,3.356-1.885
			c0.035-0.029,0.073-0.051,0.115-0.064c0.606-0.334,1.208-0.663,1.8-0.987c0.376-0.206,0.75-0.41,1.124-0.615
			c-0.754-0.109-1.526-0.335-2.261-0.632c-5.482,0.135-10.392-5.11-11.289-7.614c4.222-0.53,10.006,3.128,11.703,7.07
			c0.974,0.375,1.995,0.615,2.908,0.591c3.988-2.204,7.856-4.475,11.99-7.757c0.142-0.112,0.347-0.088,0.46,0.053
			c0.004,0.004,0.007,0.009,0.01,0.013c0.101,0.141,0.074,0.338-0.063,0.446c-3.368,2.674-6.553,4.678-9.765,6.518
			c-0.003,0.009,0,0.019-0.004,0.028c-0.373,0.896-0.56,1.875-0.631,2.825c3.642,4.186,2.597,11.405,1.186,13.689
			c-3.001-2.926-3.77-9.568-1.86-13.385c0.041-0.882,0.179-1.797,0.452-2.671c-0.465,0.262-0.93,0.521-1.397,0.779
			c-0.046,0.053-0.111,0.087-0.184,0.102c-0.684,0.378-1.371,0.754-2.064,1.133c-0.589,0.322-1.187,0.65-1.79,0.981
			c-0.512,0.893-1.069,2.671-1.192,4.886c3.655,4.184,2.61,11.416,1.197,13.702c-2.999-2.924-3.769-9.56-1.863-13.378
			c0.068-1.917,0.454-3.559,0.889-4.675c-0.821,0.456-1.653,0.923-2.499,1.411C88.109,266.174,86.584,267.2,85.036,268.378z"/>
		<g>
			<path style="fill:#3D6C87;" d="M434.61,227.269c0.136-0.068,0.257-0.164,0.332-0.296l1.264-2.204l-2.078,1.22l0.14-0.781
				l-2.449,1.438l0.053-0.929l-2.68,0.875l0.01-1.003c0,0-6.404,1.058-7.236-2.66c-0.077-0.342-0.398-0.619-0.748-0.609
				l-3.537,0.097c-0.358,0.01-0.676-0.228-0.767-0.575l-0.371-1.414c-0.11-0.418-0.542-0.664-0.957-0.545l-1.892,0.541l-0.261-0.445
				l-1.41,0.828c0,0-1.96,1.251-2.883-1.002l-0.379-0.576l-1.282,1.241c-0.019,0.018-0.039,0.036-0.059,0.052l-1.471,1.157
				l-0.646-0.419l-1.419,1.831l-0.436-0.742l-1.642,1.962l-0.955-0.437l-1.399,1.182c-0.303,0.257-0.752,0.24-1.036-0.037
				l-0.374-0.365c-0.296-0.289-0.767-0.293-1.068-0.009l-7.135,6.734c-0.105,0.099-0.181,0.227-0.217,0.367l-0.434,1.67l-1.27,0.047
				l-1.944,2.638l-0.837-0.406l-1.896,2.211l-1.026,0.802l-0.037,2.317l-0.999-0.511l-0.434,2.151l0.523,0.891l-1.06-0.276
				l-0.897,2.722l-1.078,0.034l0.115,3.425l-1.065,0.226c0,0-1.966,8.04,2.297,8.332l1.016,0.201c0,0-2.216,4.894,2.657,6.224
				c0,0,0.878-0.715,1.841,0.416l1.247,0.765l0.481-0.881l1.216,1.063c0.141,0.123,0.321,0.191,0.508,0.19l3.314-0.004
				c0.27,0,0.519-0.14,0.656-0.373c0.238-0.404,0.748-0.961,1.684-0.717l2.356,0.613l0.245-0.942l1.749,0.769l-0.008-0.694
				l2.661,1.132l-0.152-1.108l3.503,1.037l0.524-0.807l1.029,0.394l1.262-0.741l0.733,0.568l2.144-0.772l0.044-1.112l1.052-0.418
				l0.51,0.698l1.336-0.784l0.899,0.171l0.742-0.436l-0.008-0.694l3.133-0.443l0.378-0.721l2.655-0.062l0.882-1.217l0.899,0.171
				l1.781-1.046l-0.274-0.637l1.522-0.172c0.107-0.012,0.211-0.047,0.304-0.101l2.382-1.399l-0.828-1.41l-0.208-1.375l1.497-0.679
				l-0.868-0.289l2.109-1.338l-0.484-0.315l3.048-2.288l-1.247-0.765l0.468-1.073l-1.239-0.071l1.118-1.155l-0.589-0.153l2.22-3.698
				l-1.108,0.152l-0.134-1.418l-0.812-0.023l0.787-2.059l-0.646-0.419c0,0-1.141-2.623,0.806-4.066c0,0-1.046-1.781,0.5-2.888
				c0,0-0.518-1.392,0.992-1.88C433.865,228.938,433.48,227.829,434.61,227.269z"/>
			<g>
				<g>
					<path style="fill:#294859;" d="M411.331,241.512c0,0,4.857-11.546,7.97-15.981c0,0-6.859,9.34-8.853,16.531L411.331,241.512z"
						/>
					<path style="fill:#294859;" d="M403.271,246.405c0,0,1.262-5.075,10.943-22.535c0,0-6.698,8.58-11.873,23.081L403.271,246.405z
						"/>
					<path style="fill:#294859;" d="M394.917,251.31c0,0,4.328-11.934,11.341-25.444c0,0-10.744,18.602-12.012,25.838
						L394.917,251.31z"/>
					<path style="fill:#294859;" d="M388.027,254.773c0,0,5.425-17.576,7.309-20.688c0,0-6.404,13.181-8.281,21.259L388.027,254.773
						z"/>
					<polygon style="fill:#294859;" points="382.432,257.777 384.974,241.038 381.708,257.854 					"/>
					<path style="fill:#294859;" d="M380.526,258.393c0,0,17.225-6.87,49.316-29.089c0,0-30.732,22.826-49.623,30.168
						c0,0,0.042-0.207,0.119-0.498C380.415,258.684,380.526,258.393,380.526,258.393z"/>
					<path style="fill:#294859;" d="M416.731,238.236c0,0,7.081,1.297,11.879,0.586c0,0-7.165,1.122-12.476-0.236L416.731,238.236z"
						/>
					<path style="fill:#294859;" d="M409.503,243.342c0,0,13.488,0.722,18.178-0.464c0,0-8.697,1.773-19.127,1.078L409.503,243.342z
						"/>
					<path style="fill:#294859;" d="M400.324,248.731c0,0,14.822,0.302,21.738-0.047c0,0-12.572,1.517-22.708,0.616L400.324,248.731
						z"/>
					<path style="fill:#294859;" d="M392.008,253.018c0,0,16.414,2.672,22.993,1.919c0,0-15.605,0.948-23.59-1.568L392.008,253.018z
						"/>
					<path style="fill:#294859;" d="M386.074,256.236c0,0,15.016,4.562,20.628,5.58c0,0-14.933-2.542-21.523-5.054L386.074,256.236z
						"/>
				</g>
			</g>
		</g>
		<g>
			<path style="fill:#3D6C87;" d="M460.1,217.771c0.045-0.031,0.083-0.071,0.104-0.122l0.341-0.85l-0.681,0.54l0.011-0.286
				l-0.803,0.636l-0.027-0.335l-0.914,0.446l-0.047-0.359c0,0-2.235,0.698-2.718-0.589c-0.044-0.118-0.173-0.201-0.297-0.18
				l-1.259,0.211c-0.127,0.021-0.253-0.048-0.302-0.167l-0.203-0.486c-0.06-0.144-0.227-0.21-0.369-0.147l-0.649,0.288l-0.116-0.146
				l-0.462,0.366c0,0-0.638,0.545-1.08-0.214l-0.164-0.187l-0.396,0.507c-0.006,0.007-0.012,0.015-0.019,0.022l-0.468,0.487
				l-0.252-0.117l-0.416,0.725l-0.193-0.243l-0.489,0.783l-0.363-0.108l-0.441,0.492c-0.095,0.107-0.257,0.123-0.372,0.038
				l-0.152-0.112c-0.12-0.088-0.288-0.066-0.382,0.05l-2.212,2.762c-0.033,0.041-0.053,0.09-0.059,0.142l-0.072,0.618l-0.451,0.08
				l-0.563,1.039l-0.319-0.103l-0.567,0.884l-0.327,0.338l0.103,0.83l-0.382-0.133l-0.048,0.79l0.231,0.292l-0.392-0.046
				l-0.185,1.017l-0.383,0.066l0.212,1.218l-0.369,0.134c0,0-0.301,2.97,1.237,2.861l0.373,0.021c0,0-0.547,1.859,1.26,2.091
				c0,0,0.278-0.299,0.678,0.057l0.484,0.211l0.128-0.339l0.487,0.319c0.057,0.037,0.124,0.052,0.191,0.043l1.184-0.167
				c0.096-0.014,0.178-0.076,0.216-0.166c0.065-0.156,0.219-0.381,0.566-0.34l0.872,0.101l0.04-0.349l0.663,0.188l-0.038-0.248
				l1.007,0.272l-0.11-0.388l1.303,0.196l0.147-0.314l0.387,0.089l0.414-0.328l0.29,0.166l0.727-0.383l-0.04-0.399l0.355-0.202
				l0.217,0.224l0.438-0.347l0.33,0.016l0.243-0.193l-0.037-0.247l1.097-0.314l0.099-0.276l0.945-0.155l0.255-0.479l0.33,0.016
				l0.584-0.462l-0.13-0.214l0.535-0.137c0.038-0.01,0.073-0.027,0.103-0.051l0.781-0.619l-0.366-0.462l-0.143-0.481l0.501-0.318
				l-0.324-0.06l0.686-0.583l-0.189-0.088l0.974-0.97l-0.484-0.211l0.113-0.407l-0.446,0.037l0.342-0.469l-0.218-0.025l0.608-1.432
				l-0.388,0.11l-0.119-0.5l-0.291,0.033l0.178-0.775l-0.252-0.118c0,0-0.539-0.88,0.085-1.493c0,0-0.462-0.584,0.034-1.057
				c0,0-0.255-0.471,0.26-0.721C459.917,218.404,459.725,218.027,460.1,217.771z"/>
			<g>
				<g>
					<path style="fill:#294859;" d="M452.495,224.021c0,0,1.159-4.367,2.049-6.107c0,0-1.984,3.679-2.337,6.347L452.495,224.021z"/>
					<path style="fill:#294859;" d="M449.861,226.171c0,0,0.197-1.876,2.784-8.596c0,0-1.964,3.399-3.089,8.838L449.861,226.171z"/>
					<path style="fill:#294859;" d="M447.121,228.341c0,0,0.95-4.479,2.781-9.655c0,0-2.909,7.182-3.001,9.83L447.121,228.341z"/>
					<path style="fill:#294859;" d="M444.833,229.922c0,0,1.06-6.549,1.578-7.755c0,0-1.629,5.028-1.897,8.007L444.833,229.922z"/>
					<polygon style="fill:#294859;" points="442.984,231.274 443.057,225.168 442.729,231.338 					"/>
					<path style="fill:#294859;" d="M442.334,231.589c0,0,5.81-3.314,16.165-12.854c0,0-9.839,9.688-16.22,13.254
						c0,0,0.005-0.076,0.018-0.184C442.309,231.699,442.334,231.589,442.334,231.589z"/>
					<path style="fill:#294859;" d="M454.261,222.581c0,0,2.594,0.11,4.273-0.384c0,0-2.504,0.758-4.468,0.539L454.261,222.581z"/>
					<path style="fill:#294859;" d="M451.934,224.766c0,0,4.854-0.415,6.47-1.074c0,0-3.018,1.068-6.779,1.34L451.934,224.766z"/>
					<path style="fill:#294859;" d="M448.924,227.15c0,0,5.31-0.632,7.763-1.102c0,0-4.415,1.17-8.081,1.354L448.924,227.15z"/>
					<path style="fill:#294859;" d="M446.167,229.096c0,0,5.997,0.135,8.309-0.463c0,0-5.527,1.118-8.505,0.618L446.167,229.096z"/>
					<path style="fill:#294859;" d="M444.208,230.542c0,0,5.592,0.88,7.648,0.963c0,0-5.461-0.162-7.941-0.731L444.208,230.542z"/>
				</g>
			</g>
		</g>
		<g>
			<path style="fill:#3D6C87;" d="M68.729,260.611c-0.096,0.044-0.18,0.108-0.235,0.198l-0.917,1.496l1.459-0.8l-0.113,0.536
				l1.72-0.943l-0.056,0.641l1.868-0.55l-0.027,0.693c0,0,4.442-0.601,4.941,1.983c0.046,0.237,0.262,0.435,0.504,0.436l2.444,0.005
				c0.247,0.001,0.462,0.171,0.518,0.412l0.228,0.983c0.067,0.291,0.361,0.47,0.65,0.396l1.317-0.335l0.172,0.313l0.99-0.543
				c0,0,1.378-0.824,1.97,0.75l0.25,0.405l0.91-0.831c0.013-0.012,0.028-0.024,0.042-0.035l1.039-0.769l0.437,0.303l1.017-1.236
				l0.286,0.521l1.174-1.321l0.651,0.321l0.99-0.788c0.215-0.171,0.524-0.151,0.714,0.047l0.25,0.259
				c0.198,0.205,0.523,0.218,0.737,0.028l5.062-4.504c0.075-0.066,0.129-0.153,0.157-0.249l0.334-1.144l0.878-0.007l1.395-1.782
				l0.57,0.298l1.353-1.488l0.725-0.533l0.072-1.599l0.679,0.373l0.343-1.476l-0.343-0.625l0.726,0.212l0.674-1.861l0.745-0.002
				l-0.01-2.367l0.74-0.135c0,0,1.52-5.51-1.417-5.798l-0.698-0.16c0,0,1.629-3.334-1.708-4.351c0,0-0.62,0.476-1.262-0.324
				l-0.846-0.553l-0.35,0.598l-0.818-0.758c-0.095-0.088-0.218-0.138-0.347-0.142l-2.288-0.064c-0.186-0.005-0.361,0.086-0.46,0.244
				c-0.172,0.274-0.536,0.648-1.177,0.461l-1.614-0.471l-0.188,0.646l-1.192-0.567l-0.008,0.479l-1.814-0.836l0.082,0.768
				l-2.397-0.787l-0.378,0.546l-0.703-0.293l-0.886,0.486l-0.494-0.407l-1.496,0.489l-0.053,0.766l-0.735,0.267l-0.338-0.493
				l-0.938,0.514l-0.617-0.136l-0.521,0.286l-0.008,0.479l-2.172,0.242l-0.275,0.49l-1.834-0.011l-0.634,0.822l-0.617-0.136
				l-1.251,0.686l0.176,0.445l-1.054,0.088c-0.074,0.006-0.146,0.028-0.212,0.064l-1.673,0.917l0.543,0.99l0.116,0.953l-1.047,0.439
				l0.593,0.217l-1.483,0.881l0.328,0.227l-2.15,1.518l0.846,0.553l-0.345,0.731l0.854,0.074l-0.795,0.775l0.403,0.118l-1.607,2.508
				l0.768-0.082l0.064,0.982l0.56,0.032l-0.585,1.405l0.437,0.303c0,0,0.734,1.834-0.639,2.791c0,0,0.686,1.251-0.404,1.984
				c0,0,0.33,0.972-0.723,1.278C69.277,259.474,69.52,260.248,68.729,260.611z"/>
			<g>
				<g>
					<path style="fill:#294859;" d="M85.088,251.251c0,0-3.587,7.872-5.826,10.871c0,0,4.924-6.308,6.446-11.232L85.088,251.251z"/>
					<path style="fill:#294859;" d="M90.751,248.036c0,0-0.974,3.478-8.011,15.335c0,0,4.798-5.787,8.664-15.693L90.751,248.036z"/>
					<path style="fill:#294859;" d="M96.617,244.819c0,0-3.229,8.15-8.345,17.335c0,0,7.794-12.624,8.816-17.593L96.617,244.819z"/>
					<path style="fill:#294859;" d="M101.444,242.569c0,0-4.101,12.023-5.465,14.133c0,0,4.688-8.97,6.148-14.508L101.444,242.569z"
						/>
					<polygon style="fill:#294859;" points="105.368,240.608 103.273,252.112 105.869,240.57 					"/>
					<path style="fill:#294859;" d="M106.696,240.221c0,0-12.03,4.393-34.634,19.082c0,0,21.678-15.135,34.868-19.82
						c0,0-0.033,0.142-0.092,0.341C106.778,240.023,106.696,240.221,106.696,240.221z"/>
					<path style="fill:#294859;" d="M81.294,253.403c0,0-4.862-1.039-8.189-0.645c0,0,4.969-0.629,8.608,0.415L81.294,253.403z"/>
					<path style="fill:#294859;" d="M86.387,250.024c0,0-9.297-0.772-12.558-0.048c0,0,6.04-1.048,13.226-0.356L86.387,250.024z"/>
					<path style="fill:#294859;" d="M92.832,246.49c0,0-10.226-0.509-15.008-0.408c0,0,8.71-0.792,15.689,0.035L92.832,246.49z"/>
					<path style="fill:#294859;" d="M98.66,243.699c0,0-11.277-2.177-15.834-1.79c0,0,10.792-0.338,16.253,1.561L98.66,243.699z"/>
					<path style="fill:#294859;" d="M102.822,241.598c0,0-10.273-3.454-14.128-4.27c0,0,10.257,2.057,14.756,3.925L102.822,241.598z
						"/>
				</g>
			</g>
		</g>
		<g>
			<path style="fill:#3D6C87;" d="M87.16,199.961c-0.035-0.048-0.08-0.087-0.136-0.107l-0.928-0.335l0.606,0.712l-0.308-0.001
				l0.714,0.839l-0.359,0.042l0.515,0.966l-0.384,0.064c0,0,0.835,2.377-0.53,2.945c-0.126,0.052-0.21,0.194-0.183,0.327
				l0.275,1.346c0.028,0.136-0.042,0.274-0.168,0.332l-0.516,0.237c-0.152,0.07-0.217,0.252-0.144,0.403l0.334,0.687l-0.153,0.13
				l0.411,0.483c0,0,0.61,0.665-0.189,1.17l-0.195,0.184l0.561,0.407c0.008,0.006,0.016,0.012,0.024,0.019l0.541,0.485l-0.117,0.275
				l0.796,0.419l-0.254,0.216l0.861,0.496l-0.103,0.395l0.546,0.455c0.118,0.099,0.142,0.271,0.055,0.398l-0.114,0.167
				c-0.09,0.133-0.06,0.313,0.068,0.409l3.054,2.274c0.045,0.034,0.099,0.054,0.155,0.058l0.668,0.054l0.103,0.482l1.139,0.566
				l-0.099,0.348l0.973,0.576l0.376,0.338l0.888-0.142l-0.128,0.416l0.851,0.021l0.305-0.26l-0.034,0.424l1.101,0.16l0.086,0.41
				l1.302-0.274l0.158,0.392c0,0,3.206,0.21,3.03-1.439l0.009-0.402c0,0,2.02,0.518,2.201-1.434c0,0-0.332-0.287,0.035-0.732
				l0.208-0.528l-0.369-0.124l0.324-0.536c0.038-0.062,0.051-0.136,0.039-0.207l-0.225-1.267c-0.018-0.103-0.089-0.189-0.187-0.226
				c-0.17-0.064-0.418-0.221-0.387-0.596l0.076-0.942l-0.377-0.03l0.176-0.72l-0.265,0.05l0.254-1.093l-0.414,0.133l0.161-1.409
				l-0.344-0.146l0.081-0.42l-0.368-0.432l0.168-0.318l-0.439-0.768l-0.428,0.058l-0.231-0.374l0.233-0.242l-0.39-0.458l0.005-0.355
				l-0.216-0.254l-0.265,0.05l-0.38-1.168l-0.301-0.096l-0.202-1.011l-0.524-0.256l0.005-0.355l-0.52-0.611l-0.225,0.148
				l-0.168-0.57c-0.012-0.04-0.032-0.077-0.059-0.109l-0.695-0.817l-0.483,0.411l-0.511,0.172l-0.361-0.527l-0.052,0.351
				l-0.653-0.716l-0.088,0.206l-1.08-1.011l-0.208,0.528l-0.442-0.107l0.056,0.479l-0.517-0.35l-0.019,0.235l-1.563-0.6l0.133,0.413
				l-0.533,0.147l0.046,0.312l-0.84-0.162l-0.117,0.275c0,0-0.926,0.613-1.609-0.035c0,0-0.61,0.52-1.138,0.003
				c0,0-0.497,0.292-0.785-0.253C87.849,200.134,87.451,200.355,87.16,199.961z"/>
			<g>
				<g>
					<path style="fill:#294859;" d="M94.172,207.902c0,0-4.741-1.08-6.646-1.972c0,0,4.032,1.994,6.915,2.272L94.172,207.902z"/>
					<path style="fill:#294859;" d="M96.585,210.654c0,0-2.025-0.141-9.351-2.667c0,0,3.731,1.983,9.623,2.986L96.585,210.654z"/>
					<path style="fill:#294859;" d="M99.022,213.518c0,0-4.853-0.852-10.49-2.624c0,0,7.834,2.856,10.686,2.854L99.022,213.518z"/>
					<path style="fill:#294859;" d="M100.809,215.919c0,0-7.084-0.891-8.4-1.402c0,0,5.47,1.561,8.684,1.735L100.809,215.919z"/>
					<polygon style="fill:#294859;" points="102.334,217.856 95.764,218.01 102.412,218.127 					"/>
					<path style="fill:#294859;" d="M102.698,218.543c0,0-3.785-6.123-14.439-16.896c0,0,10.794,10.212,14.872,16.94
						c0,0-0.082-0.002-0.198-0.012C102.816,218.565,102.698,218.543,102.698,218.543z"/>
					<path style="fill:#294859;" d="M92.556,206.058c0,0,0.019-2.794-0.575-4.581c0,0,0.911,2.663,0.749,4.785L92.556,206.058z"/>
					<path style="fill:#294859;" d="M94.994,208.478c0,0-0.631-5.205-1.401-6.918c0,0,1.263,3.206,1.699,7.24L94.994,208.478z"/>
					<path style="fill:#294859;" d="M97.672,211.624c0,0-0.882-5.687-1.481-8.307c0,0,1.426,4.704,1.764,8.64L97.672,211.624z"/>
					<path style="fill:#294859;" d="M99.87,214.515c0,0-0.083-6.455-0.814-8.919c0,0,1.412,5.902,0.988,9.123L99.87,214.515z"/>
					<path style="fill:#294859;" d="M101.5,216.567c0,0,0.734-6.047,0.745-8.261c0,0,0.033,5.88-0.484,8.568L101.5,216.567z"/>
				</g>
			</g>
		</g>
		<g>
			<path style="fill:#3D6C87;" d="M85.313,306.234c-0.046,0.037-0.083,0.084-0.1,0.141l-0.287,0.944l0.68-0.642l0.015,0.308
				l0.801-0.757l0.061,0.356l0.938-0.564l0.084,0.38c0,0,2.331-0.957,2.968,0.377c0.059,0.123,0.204,0.199,0.336,0.165l1.33-0.344
				c0.135-0.035,0.275,0.028,0.34,0.151l0.263,0.503c0.078,0.148,0.263,0.204,0.41,0.123l0.669-0.369l0.138,0.146l0.462-0.436
				c0,0,0.633-0.643,1.178,0.128l0.193,0.185l0.377-0.581c0.006-0.009,0.012-0.017,0.018-0.025l0.456-0.565l0.281,0.103l0.378-0.816
				l0.229,0.243l0.451-0.885l0.399,0.082l0.427-0.569c0.092-0.123,0.264-0.156,0.395-0.076l0.173,0.106
				c0.137,0.083,0.316,0.044,0.405-0.089l2.114-3.168c0.031-0.047,0.049-0.101,0.05-0.158l0.019-0.67l0.476-0.128l0.506-1.167
				l0.352,0.081l0.525-1.001l0.318-0.393l-0.188-0.88l0.422,0.107l-0.023-0.851l-0.275-0.292l0.425,0.012l0.103-1.108l0.405-0.106
				l-0.341-1.286l0.383-0.178c0,0,0.045-3.212-1.593-2.952l-0.402,0.012c0,0,0.413-2.044-1.546-2.124c0,0-0.27,0.347-0.733,0.003
				l-0.538-0.181l-0.105,0.375l-0.553-0.296c-0.064-0.034-0.138-0.044-0.209-0.028l-1.253,0.29
				c-0.102,0.024-0.184,0.098-0.216,0.198c-0.055,0.173-0.199,0.428-0.575,0.418l-0.944-0.027l-0.011,0.378l-0.729-0.139
				l0.063,0.262l-1.105-0.197l0.154,0.406l-1.415-0.088l-0.128,0.351l-0.424-0.059l-0.413,0.39l-0.326-0.151l-0.744,0.478
				l0.08,0.424l-0.362,0.25l-0.254-0.22l-0.437,0.413l-0.355,0.013l-0.243,0.229l0.063,0.262l-1.147,0.44l-0.08,0.306l-0.999,0.254
				l-0.228,0.537l-0.355,0.014l-0.583,0.55l0.159,0.217l-0.561,0.198c-0.039,0.014-0.076,0.036-0.106,0.065l-0.78,0.736l0.436,0.461
				l0.198,0.502l-0.507,0.387l0.354,0.034l-0.681,0.689l0.21,0.077l-0.954,1.131l0.538,0.181l-0.084,0.447l0.475-0.081l-0.322,0.534
				l0.236,0.007l-0.518,1.592l0.406-0.154l0.174,0.525l0.309-0.062l-0.119,0.847l0.281,0.103c0,0,0.66,0.893,0.048,1.608
				c0,0,0.55,0.583,0.062,1.136c0,0,0.317,0.482-0.212,0.797C85.45,305.538,85.692,305.924,85.313,306.234z"/>
			<g>
				<g>
					<path style="fill:#294859;" d="M92.881,298.823c0,0-0.834,4.79-1.626,6.739c0,0,1.783-4.129,1.912-7.023L92.881,298.823z"/>
					<path style="fill:#294859;" d="M95.505,296.271c0,0-0.036,2.03-2.181,9.476c0,0,1.788-3.828,2.485-9.764L95.505,296.271z"/>
					<path style="fill:#294859;" d="M98.239,293.689c0,0-0.6,4.891-2.078,10.611c0,0,2.447-7.971,2.298-10.819L98.239,293.689z"/>
					<path style="fill:#294859;" d="M100.544,291.78c0,0-0.524,7.12-0.966,8.462c0,0,1.276-5.543,1.285-8.762L100.544,291.78z"/>
					<polygon style="fill:#294859;" points="102.4,290.157 102.893,296.711 102.667,290.065 					"/>
					<path style="fill:#294859;" d="M103.067,289.758c0,0-5.919,4.096-16.128,15.292c0,0,9.642-11.307,16.15-15.727
						c0,0,0.002,0.082-0.002,0.199S103.067,289.758,103.067,289.758z"/>
					<path style="fill:#294859;" d="M91.123,300.531c0,0-2.791,0.125-4.545,0.811c0,0,2.613-1.047,4.74-0.995L91.123,300.531z"/>
					<path style="fill:#294859;" d="M93.414,297.971c0,0-5.166,0.899-6.836,1.756c0,0,3.136-1.427,7.142-2.071L93.414,297.971z"/>
					<path style="fill:#294859;" d="M96.418,295.134c0,0-5.634,1.174-8.22,1.908c0,0,4.624-1.667,8.537-2.207L96.418,295.134z"/>
					<path style="fill:#294859;" d="M99.191,292.79c0,0-6.442,0.416-8.865,1.273c0,0,5.821-1.715,9.06-1.457L99.191,292.79z"/>
					<path style="fill:#294859;" d="M101.156,291.057c0,0-6.077-0.421-8.289-0.318c0,0,5.87-0.337,8.582,0.041L101.156,291.057z"/>
				</g>
			</g>
		</g>
		<g>
			<path style="fill:#3D6C87;" d="M39.225,264.189c-0.061,0.028-0.116,0.069-0.151,0.127l-0.589,0.96l0.937-0.514l-0.072,0.344
				l1.104-0.606l-0.036,0.411l1.199-0.353l-0.017,0.445c0,0,2.853-0.386,3.173,1.273c0.029,0.152,0.168,0.279,0.324,0.28
				l1.569,0.003c0.159,0,0.297,0.11,0.332,0.265l0.146,0.632c0.043,0.187,0.232,0.301,0.417,0.254l0.846-0.215l0.11,0.201
				l0.636-0.349c0,0,0.885-0.529,1.265,0.481l0.16,0.26l0.584-0.533c0.009-0.008,0.018-0.015,0.027-0.022l0.667-0.494l0.281,0.194
				l0.653-0.793l0.183,0.335l0.754-0.848l0.418,0.206l0.636-0.506c0.138-0.11,0.337-0.097,0.459,0.03l0.161,0.167
				c0.127,0.132,0.336,0.14,0.473,0.018l3.25-2.892c0.048-0.043,0.083-0.098,0.101-0.16l0.214-0.735l0.563-0.004l0.896-1.144
				l0.366,0.191l0.869-0.955l0.465-0.342l0.046-1.027l0.436,0.24l0.22-0.948l-0.22-0.402l0.466,0.136l0.433-1.195l0.478-0.001
				l-0.006-1.52l0.475-0.086c0,0,0.976-3.538-0.91-3.723l-0.448-0.102c0,0,1.046-2.141-1.097-2.794c0,0-0.398,0.305-0.811-0.208
				l-0.543-0.355l-0.224,0.384l-0.525-0.487c-0.061-0.056-0.14-0.089-0.223-0.091l-1.469-0.041c-0.12-0.003-0.232,0.055-0.296,0.157
				c-0.111,0.176-0.344,0.416-0.756,0.296l-1.036-0.302l-0.121,0.415l-0.765-0.364l-0.005,0.308l-1.165-0.536l0.053,0.493
				l-1.539-0.505l-0.243,0.351l-0.451-0.188l-0.569,0.312l-0.317-0.261l-0.96,0.314l-0.034,0.492l-0.472,0.172l-0.217-0.316
				l-0.602,0.33l-0.396-0.087l-0.335,0.184l-0.006,0.308l-1.395,0.155l-0.177,0.314l-1.178-0.007l-0.407,0.528l-0.396-0.087
				l-0.803,0.44l0.113,0.286l-0.677,0.056c-0.048,0.004-0.094,0.018-0.136,0.041l-1.074,0.589l0.349,0.636l0.074,0.612l-0.673,0.282
				l0.381,0.139l-0.952,0.566l0.21,0.146l-1.381,0.975l0.543,0.355l-0.221,0.469l0.548,0.048l-0.511,0.498l0.259,0.076l-1.032,1.611
				l0.493-0.053l0.041,0.63l0.359,0.021l-0.376,0.902l0.281,0.194c0,0,0.472,1.178-0.41,1.792c0,0,0.44,0.803-0.259,1.274
				c0,0,0.211,0.624-0.464,0.82C39.577,263.458,39.733,263.955,39.225,264.189z"/>
			<g>
				<g>
					<path style="fill:#294859;" d="M49.729,258.178c0,0-2.303,5.055-3.741,6.98c0,0,3.162-4.051,4.14-7.213L49.729,258.178z"/>
					<path style="fill:#294859;" d="M53.366,256.113c0,0-0.625,2.233-5.144,9.847c0,0,3.081-3.716,5.563-10.077L53.366,256.113z"/>
					<path style="fill:#294859;" d="M57.133,254.048c0,0-2.074,5.234-5.358,11.131c0,0,5.005-8.106,5.661-11.297L57.133,254.048z"/>
					<path style="fill:#294859;" d="M60.232,252.603c0,0-2.633,7.72-3.509,9.076c0,0,3.01-5.76,3.948-9.316L60.232,252.603z"/>
					<polygon style="fill:#294859;" points="62.752,251.344 61.407,258.731 63.074,251.319 					"/>
					<path style="fill:#294859;" d="M63.605,251.095c0,0-7.725,2.821-22.24,12.253c0,0,13.92-9.719,22.39-12.727
						c0,0-0.021,0.091-0.059,0.219C63.657,250.968,63.605,251.095,63.605,251.095z"/>
					<path style="fill:#294859;" d="M47.293,259.56c0,0-3.122-0.667-5.258-0.414c0,0,3.191-0.404,5.527,0.267L47.293,259.56z"/>
					<path style="fill:#294859;" d="M50.564,257.39c0,0-5.97-0.496-8.064-0.031c0,0,3.878-0.673,8.493-0.229L50.564,257.39z"/>
					<path style="fill:#294859;" d="M54.702,255.121c0,0-6.566-0.327-9.637-0.262c0,0,5.593-0.509,10.074,0.022L54.702,255.121z"/>
					<path style="fill:#294859;" d="M58.445,253.329c0,0-7.241-1.398-10.167-1.15c0,0,6.93-0.217,10.437,1.002L58.445,253.329z"/>
					<path style="fill:#294859;" d="M61.117,251.98c0,0-6.597-2.218-9.072-2.742c0,0,6.587,1.321,9.475,2.52L61.117,251.98z"/>
				</g>
			</g>
		</g>
		<g>
			<path style="fill:#294859;" d="M81.756,264.604c-0.047-0.014-0.098-0.019-0.145-0.004l-0.793,0.239l0.765,0.177l-0.208,0.154
				l0.902,0.208l-0.221,0.208l0.83,0.393l-0.227,0.235c0,0,1.753,1.184,1.118,2.25c-0.058,0.098-0.045,0.236,0.04,0.312l0.859,0.769
				c0.087,0.078,0.109,0.205,0.053,0.308l-0.229,0.418c-0.068,0.124-0.02,0.279,0.104,0.344l0.569,0.296l-0.038,0.164l0.519,0.12
				c0,0,0.744,0.143,0.458,0.883l-0.039,0.221l0.582-0.007c0.009,0,0.017,0,0.026,0.001l0.607,0.055l0.059,0.244l0.746-0.116
				l-0.063,0.273l0.828-0.097l0.128,0.318l0.596,0.033c0.129,0.007,0.232,0.111,0.237,0.241l0.007,0.17
				c0.005,0.135,0.116,0.241,0.251,0.241l3.198,0.003c0.047,0,0.093-0.013,0.133-0.038l0.477-0.298l0.311,0.273l1.051-0.189
				l0.107,0.284l0.944-0.099l0.423,0.04l0.528-0.54l0.122,0.345l0.584-0.412l0.076-0.328l0.189,0.303l0.822-0.444l0.263,0.233
				l0.74-0.837l0.303,0.185c0,0,2.266-1.464,1.322-2.487l-0.196-0.275c0,0,1.621-0.662,0.765-2.069c0,0-0.368-0.027-0.343-0.511
				l-0.124-0.46l-0.311,0.101l-0.05-0.524c-0.006-0.061-0.033-0.117-0.078-0.159l-0.786-0.741c-0.064-0.06-0.154-0.083-0.239-0.059
				c-0.147,0.042-0.392,0.06-0.559-0.207l-0.421-0.673l-0.269,0.168l-0.242-0.574l-0.154,0.166l-0.376-0.864l-0.212,0.297
				l-0.597-1.03l-0.305,0.074l-0.156-0.324l-0.465-0.107l-0.046-0.299l-0.681-0.297l-0.259,0.253l-0.343-0.137l0.036-0.28
				l-0.492-0.113l-0.174-0.242l-0.273-0.063l-0.154,0.166l-0.841-0.597l-0.251,0.086l-0.643-0.58l-0.481,0.09l-0.174-0.242
				l-0.656-0.151l-0.078,0.212l-0.399-0.3c-0.028-0.021-0.06-0.036-0.094-0.044l-0.877-0.202l-0.12,0.519l-0.259,0.372l-0.507-0.174
				l0.141,0.263l-0.799-0.155l0.044,0.183l-1.234-0.141l0.124,0.46l-0.351,0.149l0.277,0.294l-0.523,0.023l0.105,0.168l-1.354,0.379
				l0.297,0.212l-0.286,0.366l0.187,0.187l-0.647,0.311l0.059,0.244c0,0-0.317,0.877-1.102,0.782c0,0-0.151,0.656-0.765,0.572
				c0,0-0.189,0.446-0.656,0.223C82.306,264.376,82.149,264.725,81.756,264.604z"/>
			<g>
				<path style="fill:#3D6C87;" d="M90.457,266.445c0,0-3.736,1.646-5.466,1.999c0,0,3.716-0.675,5.799-1.931L90.457,266.445z"/>
				<path style="fill:#3D6C87;" d="M93.462,267.092c0,0-1.435,0.919-7.638,2.885c0,0,3.507-0.531,7.981-2.806L93.462,267.092z"/>
				<path style="fill:#3D6C87;" d="M96.538,267.801c0,0-3.697,1.856-8.384,3.485c0,0,6.71-1.998,8.631-3.428L96.538,267.801z"/>
				<path style="fill:#3D6C87;" d="M98.945,268.525c0,0-5.221,2.947-6.364,3.262c0,0,4.468-1.687,6.722-3.179L98.945,268.525z"/>
				<polygon style="fill:#3D6C87;" points="100.943,269.066 96.592,272.461 101.132,269.21 				"/>
				<path style="fill:#3D6C87;" d="M101.532,269.347c0,0-5.617-2.231-18.192-4.157c0,0,12.389,1.478,18.506,3.971
					c0,0-0.056,0.039-0.14,0.091C101.623,269.303,101.532,269.347,101.532,269.347z"/>
				<path style="fill:#3D6C87;" d="M88.445,266.012c0,0-1.386-1.893-2.681-2.799c0,0,1.948,1.339,2.901,2.85L88.445,266.012z"/>
				<path style="fill:#3D6C87;" d="M91.3,266.421c0,0-3.032-3.192-4.408-3.961c0,0,2.456,1.528,4.77,4.029L91.3,266.421z"/>
				<path style="fill:#3D6C87;" d="M94.68,267.201c0,0-3.442-3.391-5.158-4.857c0,0,3.317,2.457,5.515,4.94L94.68,267.201z"/>
				<path style="fill:#3D6C87;" d="M97.61,268.048c0,0-3.288-4.309-5.014-5.604c0,0,3.907,3.27,5.234,5.654L97.61,268.048z"/>
				<path style="fill:#3D6C87;" d="M99.735,268.616c0,0-2.534-4.443-3.635-5.941c0,0,2.967,3.946,3.964,6.017L99.735,268.616z"/>
			</g>
		</g>
		<g>
			<path style="fill:#294859;" d="M51.79,233.398c-0.032-0.019-0.069-0.031-0.106-0.029l-0.627,0.033l0.532,0.268l-0.181,0.076
				l0.627,0.316l-0.2,0.114l0.541,0.439l-0.21,0.133c0,0,1.079,1.188,0.419,1.859c-0.061,0.062-0.075,0.166-0.026,0.237l0.495,0.721
				c0.05,0.073,0.043,0.171-0.017,0.236l-0.244,0.267c-0.072,0.079-0.065,0.202,0.015,0.272l0.366,0.32l-0.057,0.114l0.361,0.182
				c0,0,0.523,0.239,0.179,0.733l-0.069,0.156l0.43,0.1c0.006,0.001,0.013,0.003,0.019,0.005l0.438,0.15l0,0.19l0.571,0.049
				l-0.096,0.19l0.628,0.078l0.037,0.257l0.433,0.132c0.094,0.029,0.151,0.124,0.131,0.22l-0.026,0.126
				c-0.02,0.1,0.042,0.199,0.141,0.223l2.355,0.578c0.035,0.008,0.071,0.007,0.105-0.004l0.405-0.134l0.18,0.257l0.809,0.05
				l0.028,0.228l0.713,0.097l0.304,0.105l0.486-0.303l0.028,0.276l0.505-0.199l0.115-0.228l0.085,0.257l0.685-0.179l0.152,0.219
				l0.696-0.483l0.19,0.191c0,0,1.933-0.671,1.422-1.595l-0.095-0.238c0,0,1.313-0.197,0.936-1.387c0,0-0.266-0.086-0.161-0.438
				l-0.009-0.362l-0.247,0.018l0.057-0.395c0.007-0.046-0.004-0.092-0.029-0.131l-0.446-0.688c-0.036-0.056-0.099-0.089-0.165-0.086
				c-0.116,0.005-0.3-0.026-0.375-0.253l-0.189-0.571l-0.229,0.076l-0.075-0.466l-0.143,0.095l-0.122-0.704l-0.21,0.18l-0.255-0.866
				l-0.238-0.001l-0.056-0.267l-0.323-0.162l0.02-0.228l-0.448-0.342l-0.237,0.14l-0.228-0.162l0.077-0.2l-0.342-0.172l-0.085-0.21
				l-0.19-0.096l-0.143,0.095l-0.512-0.591l-0.2,0.018l-0.369-0.543l-0.371-0.02l-0.085-0.21l-0.456-0.229l-0.096,0.143l-0.24-0.293
				c-0.017-0.021-0.038-0.037-0.062-0.049l-0.61-0.307l-0.182,0.361l-0.257,0.228l-0.342-0.22l0.056,0.219l-0.561-0.258l0,0.143
				l-0.884-0.326l0.009,0.362l-0.285,0.047l0.152,0.267l-0.39-0.077l0.047,0.143l-1.066,0.035l0.18,0.21l-0.276,0.218l0.104,0.172
				l-0.533,0.113l0,0.19c0,0-0.392,0.589-0.952,0.378c0,0-0.229,0.456-0.667,0.284c0,0-0.219,0.294-0.523,0.046
				C52.236,233.329,52.057,233.558,51.79,233.398z"/>
			<g>
				<path style="fill:#3D6C87;" d="M57.87,236.32c0,0-3.049,0.541-4.388,0.49c0,0,2.859,0.171,4.62-0.38L57.87,236.32z"/>
				<path style="fill:#3D6C87;" d="M59.968,237.337c0,0-1.223,0.419-6.147,0.752c0,0,2.68,0.24,6.385-0.632L59.968,237.337z"/>
				<path style="fill:#3D6C87;" d="M62.107,238.414c0,0-3.058,0.703-6.804,1.059c0,0,5.304-0.265,6.976-0.973L62.107,238.414z"/>
				<path style="fill:#3D6C87;" d="M63.75,239.38c0,0-4.377,1.232-5.276,1.258c0,0,3.596-0.439,5.525-1.133L63.75,239.38z"/>
				<polygon style="fill:#3D6C87;" points="65.125,240.138 61.308,241.856 65.238,240.278 				"/>
				<path style="fill:#3D6C87;" d="M65.509,240.451c0,0-3.737-2.655-12.657-6.336c0,0,8.863,3.318,12.922,6.255
					c0,0-0.049,0.019-0.119,0.042C65.584,240.435,65.509,240.451,65.509,240.451z"/>
				<path style="fill:#3D6C87;" d="M56.466,235.639c0,0-0.681-1.644-1.472-2.545c0,0,1.194,1.337,1.625,2.622L56.466,235.639z"/>
				<path style="fill:#3D6C87;" d="M58.495,236.454c0,0-1.66-2.898-2.535-3.712c0,0,1.535,1.568,2.79,3.827L58.495,236.454z"/>
				<path style="fill:#3D6C87;" d="M60.846,237.637c0,0-1.926-3.118-2.927-4.507c0,0,2.002,2.407,3.175,4.632L60.846,237.637z"/>
				<path style="fill:#3D6C87;" d="M62.852,238.788c0,0-1.648-3.766-2.687-5.031c0,0,2.291,3.113,2.84,5.108L62.852,238.788z"/>
				<path style="fill:#3D6C87;" d="M64.316,239.589c0,0-1.068-3.73-1.609-5.032c0,0,1.476,3.441,1.839,5.147L64.316,239.589z"/>
			</g>
		</g>
		<g>
			<path style="fill:#5698B9;" d="M421.52,288.808c0.085,0.081,0.186,0.143,0.302,0.163l1.928,0.337l-1.429-1.185l0.602-0.103
				l-1.684-1.396l0.687-0.205l-1.337-1.711l0.729-0.257c0,0-2.447-4.361,0.027-5.939c0.227-0.145,0.344-0.45,0.245-0.701
				l-0.998-2.537c-0.101-0.257-0.012-0.549,0.215-0.706l0.927-0.64c0.274-0.189,0.339-0.567,0.144-0.836l-0.888-1.228l0.254-0.306
				l-0.97-0.804c0,0-1.42-1.092-0.031-2.351l0.318-0.425l-1.235-0.603c-0.018-0.009-0.036-0.019-0.053-0.03l-1.224-0.762
				l0.134-0.578l-1.699-0.547l0.423-0.51l-1.852-0.674l0.066-0.807l-1.224-0.703c-0.265-0.152-0.371-0.482-0.245-0.76l0.166-0.366
				c0.132-0.29,0.011-0.632-0.273-0.776l-6.75-3.4c-0.1-0.05-0.211-0.071-0.322-0.061l-1.324,0.124l-0.367-0.907l-2.421-0.715
				l0.075-0.713l-2.099-0.793l-0.85-0.533l-1.688,0.581l0.108-0.858l-1.672,0.25l-0.508,0.613l-0.079-0.84l-2.207,0.065
				l-0.307-0.772l-2.451,0.982l-0.443-0.712c0,0-6.339,0.687-5.431,3.85l0.121,0.789c0,0-4.126-0.321-3.811,3.558
				c0,0,0.748,0.448,0.182,1.443l-0.226,1.104l0.764,0.117l-0.451,1.16c-0.052,0.134-0.054,0.283-0.004,0.418l0.873,2.399
				c0.071,0.195,0.238,0.339,0.442,0.377c0.355,0.066,0.892,0.289,0.961,1.031l0.174,1.867l0.747-0.07l-0.098,1.469l0.5-0.188
				l-0.122,2.224l0.763-0.401l0.168,2.809l0.722,0.168l-0.015,0.849l0.868,0.719l-0.219,0.68l1.122,1.35l0.816-0.26l0.579,0.652
				l-0.372,0.553l0.919,0.762l0.112,0.696l0.51,0.423l0.5-0.188l1.143,2.153l0.621,0.085l0.742,1.907l1.113,0.32l0.112,0.696
				l1.225,1.016l0.39-0.366l0.524,1.057c0.037,0.074,0.089,0.14,0.153,0.193l1.638,1.358l0.804-0.97l0.941-0.512l0.885,0.906
				l-0.019-0.704l1.522,1.176l0.101-0.433l2.457,1.607l0.226-1.104l0.9,0.057l-0.274-0.916l1.13,0.506l-0.044-0.467l3.261,0.637
				l-0.401-0.763l0.992-0.469l-0.197-0.594l1.698,0.03l0.134-0.577c0,0,1.601-1.515,3.156-0.483c0,0,1.016-1.225,2.223-0.396
				c0,0,0.872-0.741,1.622,0.225C420.116,288.706,420.818,288.136,421.52,288.808z"/>
			<g>
				<path style="fill:#3D6C87;" d="M405.095,275.685c0,0,9.637,0.488,13.667,1.578c0,0-8.565-2.516-14.296-2.073L405.095,275.685z"
					/>
				<path style="fill:#3D6C87;" d="M399.435,271.132c0,0,4.007-0.418,19.194,2.011c0,0-7.972-2.599-19.833-2.541L399.435,271.132z"
					/>
				<path style="fill:#3D6C87;" d="M393.69,266.369c0,0,9.779,0.002,21.405,1.536c0,0-16.293-2.899-21.866-1.918L393.69,266.369z"/>
				<path style="fill:#3D6C87;" d="M389.374,262.287c0,0,14.153-0.684,16.902-0.136c0,0-11.228-1.178-17.571-0.418L389.374,262.287z
					"/>
				<polygon style="fill:#3D6C87;" points="385.729,259.023 398.52,256.471 385.483,258.519 				"/>
				<path style="fill:#3D6C87;" d="M384.782,257.805c0,0,9.497,10.673,34.013,28.084c0,0-24.598-16.267-34.874-28.023
					c0,0,0.161-0.024,0.392-0.044C384.543,257.801,384.782,257.805,384.782,257.805z"/>
				<path style="fill:#3D6C87;" d="M408.884,278.736c0,0,0.919,5.469,2.693,8.758c0,0-2.693-4.895-3.104-9.098L408.884,278.736z"/>
				<path style="fill:#3D6C87;" d="M403.289,274.842c0,0,3.017,9.959,5.107,13.044c0,0-3.567-5.834-5.801-13.57L403.289,274.842z"/>
				<path style="fill:#3D6C87;" d="M396.977,269.608c0,0,3.671,10.815,5.74,15.732c0,0-4.398-8.708-6.407-16.285L396.977,269.608z"
					/>
				<path style="fill:#3D6C87;" d="M391.689,264.71c0,0,2.373,12.59,4.645,17.157c0,0-4.782-11.053-5.056-17.497L391.689,264.71z"/>
				<path style="fill:#3D6C87;" d="M387.801,261.257c0,0,0.637,12.073,1.373,16.405c0,0-2.078-11.483-1.989-16.915L387.801,261.257z
					"/>
			</g>
		</g>
		<g>
			<path style="fill:#5698B9;" d="M459.543,246.997c0.034,0.011,0.071,0.015,0.105,0.005l0.579-0.165l-0.554-0.137l0.153-0.109
				l-0.653-0.161l0.163-0.149l-0.6-0.295l0.168-0.169c0,0-1.262-0.88-0.788-1.648c0.044-0.071,0.035-0.171-0.026-0.227l-0.616-0.569
				c-0.062-0.058-0.077-0.15-0.035-0.224l0.171-0.301c0.05-0.089,0.018-0.202-0.072-0.251l-0.41-0.221l0.029-0.119l-0.376-0.093
				c0,0-0.54-0.112-0.324-0.647l0.031-0.16l-0.423-0.001c-0.006,0-0.012,0-0.019-0.001l-0.441-0.047l-0.04-0.178l-0.544,0.076
				l0.049-0.198l-0.603,0.061l-0.09-0.232l-0.433-0.031c-0.094-0.007-0.167-0.084-0.17-0.178l-0.003-0.124
				c-0.002-0.098-0.082-0.177-0.18-0.178l-2.325-0.037c-0.034-0.001-0.068,0.009-0.097,0.026l-0.35,0.212l-0.223-0.202l-0.766,0.126
				l-0.075-0.208l-0.687,0.062l-0.307-0.034l-0.389,0.387l-0.085-0.252l-0.429,0.293l-0.059,0.238l-0.134-0.222l-0.602,0.314
				l-0.189-0.173l-0.547,0.6l-0.218-0.138c0,0-1.663,1.039-0.988,1.794l0.139,0.202c0,0-1.185,0.464-0.579,1.496
				c0,0,0.267,0.024,0.244,0.375l0.085,0.336l0.227-0.07l0.031,0.382c0.004,0.044,0.023,0.085,0.055,0.116l0.563,0.547
				c0.046,0.044,0.111,0.062,0.173,0.045c0.107-0.029,0.286-0.039,0.404,0.157l0.298,0.494l0.198-0.119l0.169,0.42l0.113-0.119
				l0.264,0.632l0.158-0.213l0.423,0.755l0.222-0.05l0.11,0.237l0.337,0.083l0.03,0.217l0.491,0.224l0.191-0.181l0.248,0.103
				l-0.029,0.203l0.356,0.088l0.124,0.178l0.198,0.049l0.113-0.119l0.605,0.443l0.183-0.06l0.461,0.429l0.351-0.061l0.124,0.178
				l0.475,0.117l0.059-0.154l0.287,0.223c0.02,0.016,0.044,0.027,0.068,0.033l0.636,0.157l0.093-0.376l0.192-0.268l0.366,0.132
				l-0.099-0.193l0.579,0.122l-0.03-0.133l0.896,0.116l-0.085-0.336l0.257-0.105l-0.199-0.217l0.381-0.011l-0.075-0.123l0.988-0.26
				l-0.213-0.158l0.212-0.263l-0.134-0.138l0.474-0.219l-0.04-0.178c0,0,0.24-0.634,0.809-0.557c0,0,0.117-0.475,0.563-0.408
				c0,0,0.142-0.322,0.479-0.155C459.14,247.157,459.259,246.906,459.543,246.997z"/>
			<g>
				<path style="fill:#3D6C87;" d="M453.237,245.564c0,0,2.734-1.156,3.996-1.394c0,0-2.709,0.451-4.237,1.341L453.237,245.564z"/>
				<path style="fill:#3D6C87;" d="M451.059,245.061c0,0,1.054-0.652,5.584-2.014c0,0-2.556,0.348-5.833,1.953L451.059,245.061z"/>
				<path style="fill:#3D6C87;" d="M448.831,244.512c0,0,2.708-1.309,6.133-2.442c0,0-4.9,1.38-6.312,2.398L448.831,244.512z"/>
				<path style="fill:#3D6C87;" d="M447.089,243.96c0,0,3.828-2.085,4.662-2.302c0,0-3.267,1.178-4.922,2.238L447.089,243.96z"/>
				<polygon style="fill:#3D6C87;" points="445.642,243.544 448.842,241.124 445.507,243.438 				"/>
				<path style="fill:#3D6C87;" d="M445.217,243.334c0,0,4.059,1.683,13.181,3.221c0,0-8.991-1.21-13.411-3.088
					c0,0,0.042-0.028,0.103-0.065C445.15,243.365,445.217,243.334,445.217,243.334z"/>
				<path style="fill:#3D6C87;" d="M454.695,245.901c0,0,0.987,1.391,1.919,2.064c0,0-1.402-0.995-2.078-2.104L454.695,245.901z"/>
				<path style="fill:#3D6C87;" d="M452.624,245.572c0,0,2.169,2.354,3.162,2.928c0,0-1.769-1.138-3.424-2.981L452.624,245.572z"/>
				<path style="fill:#3D6C87;" d="M450.175,244.969c0,0,2.465,2.503,3.697,3.588c0,0-2.384-1.822-3.956-3.651L450.175,244.969z"/>
				<path style="fill:#3D6C87;" d="M448.054,244.321c0,0,2.344,3.168,3.585,4.129c0,0-2.805-2.42-3.744-4.168L448.054,244.321z"/>
				<path style="fill:#3D6C87;" d="M446.515,243.885c0,0,1.794,3.258,2.578,4.359c0,0-2.114-2.901-2.817-4.418L446.515,243.885z"/>
			</g>
		</g>
		<path style="fill:#3D6C87;" d="M168.11,143.443l-3.069-9.005l-8.159,1.809c-1.247-1.921-2.755-3.619-4.46-5.061l2.842-7.869
			l-8.538-4.197l-4.5,7.064c-2.179-0.465-4.44-0.619-6.718-0.431l-3.559-7.582l-9.005,3.069l1.813,8.177
			c-1.919,1.243-3.615,2.746-5.056,4.445l-7.877-2.845l-4.197,8.538l7.056,4.495c-0.469,2.183-0.627,4.448-0.441,6.731l-7.565,3.551
			l3.069,9.005l8.147-1.807c1.246,1.93,2.756,3.635,4.463,5.083l-2.161,6.344l7.865,5.697l4.476-7.027
			c2.193,0.472,4.469,0.629,6.763,0.439l3.537,7.537l9.005-3.069l-1.802-8.129c1.932-1.251,3.639-2.765,5.087-4.478l7.836,2.83
			l4.197-8.538l-7.034-4.481c0.467-2.189,0.621-4.461,0.43-6.75L168.11,143.443z M141.928,162.19
			c-7.335,2.5-15.307-1.419-17.807-8.753c-2.5-7.334,1.419-15.307,8.753-17.807c7.334-2.5,15.307,1.419,17.807,8.754
			C153.182,151.717,149.263,159.69,141.928,162.19z"/>
		<path style="fill:#5698B9;" d="M462.991,319.57l-1.851-5.43l-4.92,1.091c-0.752-1.159-1.661-2.182-2.689-3.051l1.714-4.745
			l-5.148-2.531l-2.713,4.259c-1.314-0.28-2.677-0.374-4.051-0.26l-2.146-4.572l-5.43,1.851l1.093,4.931
			c-1.157,0.749-2.18,1.656-3.049,2.68l-4.75-1.715l-2.531,5.148l4.255,2.71c-0.283,1.316-0.378,2.682-0.266,4.059l-4.562,2.141
			l1.851,5.43l4.913-1.089c0.751,1.164,1.662,2.192,2.691,3.065l-1.303,3.826l4.742,3.435l2.699-4.237
			c1.322,0.284,2.695,0.379,4.078,0.265l2.133,4.545l5.43-1.851l-1.087-4.902c1.165-0.754,2.194-1.667,3.067-2.7l4.725,1.707
			l2.531-5.148l-4.242-2.702c0.282-1.32,0.375-2.69,0.259-4.07L462.991,319.57z M447.204,330.874
			c-4.423,1.508-9.23-0.856-10.737-5.278c-1.508-4.422,0.856-9.23,5.278-10.737c4.422-1.508,9.23,0.856,10.737,5.278
			C453.99,324.56,451.626,329.367,447.204,330.874z"/>
		<path style="fill:#DDEDEE;" d="M448.693,131.266l-1.851-5.43l-4.92,1.091c-0.752-1.158-1.661-2.182-2.689-3.051l1.714-4.745
			l-5.148-2.531l-2.713,4.259c-1.314-0.28-2.677-0.373-4.051-0.26l-2.146-4.572l-5.43,1.851l1.093,4.931
			c-1.157,0.749-2.18,1.656-3.049,2.68l-4.75-1.715l-2.531,5.148l4.255,2.71c-0.283,1.316-0.378,2.682-0.266,4.059l-4.562,2.141
			l1.851,5.43l4.913-1.089c0.751,1.164,1.662,2.192,2.691,3.065l-1.303,3.826l4.742,3.435l2.699-4.237
			c1.322,0.284,2.695,0.379,4.078,0.265l2.133,4.545l5.43-1.851l-1.087-4.901c1.165-0.754,2.194-1.668,3.067-2.7l4.725,1.706
			l2.531-5.148l-4.241-2.702c0.282-1.32,0.375-2.69,0.259-4.07L448.693,131.266z M432.906,142.571
			c-4.423,1.507-9.23-0.856-10.737-5.278c-1.507-4.423,0.856-9.23,5.278-10.737c4.422-1.507,9.23,0.856,10.737,5.278
			C439.691,136.256,437.328,141.063,432.906,142.571z"/>
		<path style="fill:#DDEDEE;" d="M89.372,175.026l-1.851-5.43l-4.92,1.091c-0.752-1.158-1.661-2.182-2.689-3.051l1.714-4.745
			l-5.148-2.531l-2.713,4.259c-1.314-0.28-2.677-0.373-4.051-0.26l-2.146-4.572l-5.43,1.851l1.093,4.931
			c-1.157,0.749-2.18,1.656-3.049,2.68l-4.75-1.715l-2.531,5.148l4.255,2.71c-0.283,1.316-0.378,2.682-0.266,4.059l-4.562,2.141
			l1.851,5.43l4.913-1.089c0.752,1.164,1.662,2.192,2.691,3.065l-1.303,3.826l4.742,3.435l2.699-4.237
			c1.322,0.284,2.695,0.379,4.078,0.265l2.133,4.545l5.43-1.851l-1.087-4.902c1.165-0.754,2.194-1.667,3.067-2.7l4.725,1.706
			l2.531-5.148l-4.242-2.702c0.282-1.32,0.375-2.69,0.259-4.07L89.372,175.026z M73.585,186.33
			c-4.423,1.508-9.23-0.856-10.737-5.278c-1.507-4.423,0.856-9.23,5.278-10.737c4.423-1.508,9.23,0.856,10.737,5.278
			C80.371,180.016,78.007,184.823,73.585,186.33z"/>
		<path style="fill:#DDEDEE;" d="M434.622,102.749l-0.727-2.133l-1.933,0.429c-0.296-0.455-0.653-0.857-1.057-1.199l0.673-1.864
			l-2.023-0.994l-1.066,1.674c-0.516-0.11-1.052-0.147-1.592-0.102l-0.843-1.796l-2.133,0.727l0.43,1.937
			c-0.455,0.294-0.856,0.651-1.198,1.053l-1.866-0.674l-0.994,2.023l1.672,1.065c-0.111,0.517-0.148,1.054-0.104,1.595l-1.792,0.841
			l0.727,2.133l1.93-0.428c0.295,0.457,0.653,0.861,1.057,1.204l-0.512,1.503l1.863,1.35l1.06-1.665
			c0.519,0.112,1.059,0.149,1.602,0.104l0.838,1.786l2.133-0.727l-0.427-1.926c0.458-0.296,0.862-0.655,1.205-1.061l1.856,0.671
			l0.994-2.023l-1.667-1.062c0.111-0.519,0.147-1.057,0.102-1.599L434.622,102.749z M428.42,107.191
			c-1.738,0.592-3.626-0.336-4.219-2.074c-0.592-1.737,0.336-3.626,2.074-4.218c1.738-0.592,3.626,0.336,4.219,2.074
			C431.086,104.71,430.157,106.598,428.42,107.191z"/>
		<path style="fill:#3D6C87;" d="M431.703,344.792l-1.448-4.248l-3.849,0.853c-0.588-0.906-1.3-1.707-2.104-2.387l1.341-3.712
			l-4.027-1.98l-2.123,3.332c-1.028-0.219-2.094-0.292-3.169-0.203l-1.679-3.577l-4.248,1.448l0.855,3.857
			c-0.905,0.586-1.705,1.295-2.385,2.097l-3.716-1.342l-1.98,4.027l3.328,2.12c-0.221,1.03-0.296,2.098-0.208,3.175l-3.569,1.675
			l1.448,4.248l3.843-0.852c0.588,0.91,1.3,1.714,2.105,2.397l-1.019,2.993l3.71,2.687l2.111-3.315
			c1.034,0.223,2.108,0.297,3.19,0.207l1.669,3.555l4.248-1.448l-0.85-3.835c0.911-0.59,1.716-1.304,2.399-2.112l3.696,1.335
			l1.98-4.027l-3.318-2.114c0.22-1.033,0.293-2.104,0.203-3.184L431.703,344.792z M419.353,353.635
			c-3.46,1.179-7.22-0.669-8.4-4.129c-1.179-3.46,0.669-7.22,4.129-8.4c3.46-1.179,7.22,0.669,8.4,4.129
			C424.662,348.695,422.813,352.456,419.353,353.635z"/>
		<path style="fill:#3D6C87;" d="M192.765,115.315l-1.581-4.638l-4.202,0.932c-0.642-0.99-1.419-1.864-2.297-2.607l1.464-4.053
			l-4.397-2.162l-2.318,3.638c-1.122-0.239-2.287-0.319-3.46-0.222l-1.833-3.906l-4.638,1.581l0.934,4.212
			c-0.988,0.64-1.862,1.414-2.604,2.289l-4.057-1.465l-2.162,4.398l3.634,2.315c-0.242,1.124-0.323,2.291-0.227,3.467l-3.897,1.829
			l1.581,4.638l4.196-0.931c0.642,0.994,1.42,1.872,2.299,2.618l-1.113,3.268l4.051,2.934l2.306-3.619
			c1.13,0.243,2.302,0.324,3.484,0.226l1.822,3.883l4.638-1.581l-0.928-4.187c0.995-0.644,1.874-1.424,2.62-2.307l4.036,1.458
			l2.162-4.398l-3.623-2.308c0.241-1.128,0.32-2.298,0.221-3.477L192.765,115.315z M179.28,124.971
			c-3.778,1.288-7.884-0.731-9.172-4.509c-1.288-3.778,0.731-7.884,4.509-9.172c3.778-1.288,7.884,0.731,9.172,4.509
			C185.076,119.577,183.057,123.683,179.28,124.971z"/>
		<path style="fill:#3D6C87;" d="M99.321,132.76l-1.119-3.284l-2.976,0.66c-0.455-0.701-1.005-1.32-1.627-1.846l1.036-2.87
			l-3.114-1.531l-1.641,2.576c-0.795-0.17-1.619-0.226-2.45-0.157l-1.298-2.765l-3.284,1.119l0.661,2.982
			c-0.7,0.453-1.318,1.002-1.844,1.621l-2.873-1.038l-1.531,3.114l2.574,1.639c-0.171,0.796-0.229,1.622-0.161,2.455l-2.759,1.295
			l1.119,3.284l2.971-0.659c0.455,0.704,1.005,1.326,1.628,1.854l-0.788,2.314l2.868,2.078l1.633-2.563
			c0.8,0.172,1.63,0.229,2.467,0.16l1.29,2.749l3.284-1.119l-0.657-2.965c0.705-0.456,1.327-1.009,1.855-1.633l2.858,1.032
			l1.531-3.114l-2.565-1.634c0.17-0.798,0.227-1.627,0.157-2.462L99.321,132.76z M89.772,139.597
			c-2.675,0.912-5.583-0.518-6.494-3.193c-0.912-2.675,0.518-5.583,3.193-6.495c2.675-0.912,5.583,0.518,6.494,3.193
			C93.877,135.778,92.447,138.685,89.772,139.597z"/>
		<path style="fill:#DDEDEE;" d="M174.473,447.581c0,2.816-22.036,5.099-49.218,5.099s-49.218-2.283-49.218-5.099
			c0-2.816,22.036-5.099,49.218-5.099S174.473,444.765,174.473,447.581z"/>
		<g>
			<path style="fill:#2C4E6C;" d="M268.515,421.598c0,1.1-0.891,1.991-1.991,1.991c-1.099,0-1.991-0.891-1.991-1.991
				c0-1.099,0.891-1.991,1.991-1.991C267.624,419.607,268.515,420.498,268.515,421.598z"/>
			<path style="fill:#2C4E6C;" d="M310.721,408.06c0,1.099-0.891,1.991-1.991,1.991c-1.1,0-1.991-0.891-1.991-1.991
				s0.891-1.991,1.991-1.991C309.829,406.069,310.721,406.961,310.721,408.06z"/>
			<path style="fill:#2C4E6C;" d="M194.455,411.245c0,0.88-0.713,1.593-1.593,1.593c-0.88,0-1.593-0.713-1.593-1.593
				c0-0.88,0.713-1.593,1.593-1.593C193.742,409.653,194.455,410.366,194.455,411.245z"/>
			<path style="fill:#2C4E6C;" d="M57.486,390.341c0,0.99-0.802,1.792-1.792,1.792c-0.99,0-1.792-0.802-1.792-1.792
				c0-0.99,0.802-1.792,1.792-1.792C56.683,388.55,57.486,389.352,57.486,390.341z"/>
			<path style="fill:#2C4E6C;" d="M44.346,343.358c0,1.649-1.337,2.986-2.986,2.986c-1.649,0-2.986-1.337-2.986-2.986
				c0-1.649,1.337-2.986,2.986-2.986C43.009,340.371,44.346,341.708,44.346,343.358z"/>
			<circle style="fill:#2C4E6C;" cx="35.586" cy="200.216" r="1.991"/>
			<path style="fill:#2C4E6C;" d="M40.364,144.074c0,0.88-0.713,1.593-1.593,1.593c-0.88,0-1.593-0.713-1.593-1.593
				c0-0.88,0.713-1.593,1.593-1.593C39.651,142.482,40.364,143.195,40.364,144.074z"/>
			<path style="fill:#2C4E6C;" d="M128.758,103.461c0,0.88-0.713,1.593-1.593,1.593c-0.88,0-1.593-0.713-1.593-1.593
				s0.713-1.593,1.593-1.593C128.045,101.868,128.758,102.582,128.758,103.461z"/>
			<path style="fill:#2C4E6C;" d="M80.978,74.395c0,1.1-0.891,1.991-1.991,1.991c-1.1,0-1.991-0.891-1.991-1.991
				c0-1.099,0.891-1.991,1.991-1.991C80.086,72.404,80.978,73.295,80.978,74.395z"/>
			<circle style="fill:#2C4E6C;" cx="207.595" cy="54.088" r="1.194"/>
			<circle style="fill:#2C4E6C;" cx="220.934" cy="106.846" r="1.394"/>
			<path style="fill:#2C4E6C;" d="M213.169,130.935c0,0.22-0.178,0.398-0.398,0.398c-0.22,0-0.398-0.178-0.398-0.398
				s0.178-0.398,0.398-0.398C212.991,130.537,213.169,130.715,213.169,130.935z"/>
			<path style="fill:#2C4E6C;" d="M295.59,65.038c0,0.55-0.446,0.995-0.995,0.995c-0.55,0-0.995-0.446-0.995-0.995
				c0-0.55,0.446-0.995,0.995-0.995C295.145,64.043,295.59,64.488,295.59,65.038z"/>
			<circle style="fill:#2C4E6C;" cx="356.311" cy="136.31" r="1.394"/>
			<path style="fill:#2C4E6C;" d="M380.4,69.418c0,1.209-0.98,2.19-2.19,2.19c-1.209,0-2.19-0.98-2.19-2.19
				c0-1.21,0.98-2.19,2.19-2.19C379.42,67.228,380.4,68.208,380.4,69.418z"/>
			<path style="fill:#2C4E6C;" d="M404.29,132.727c0,0.33-0.267,0.597-0.597,0.597c-0.33,0-0.597-0.267-0.597-0.597
				c0-0.33,0.267-0.597,0.597-0.597C404.023,132.129,404.29,132.397,404.29,132.727z"/>
			<path style="fill:#2C4E6C;" d="M465.608,163.983c0,0.44-0.357,0.796-0.796,0.796s-0.796-0.356-0.796-0.796
				s0.357-0.796,0.796-0.796S465.608,163.543,465.608,163.983z"/>
			<path style="fill:#2C4E6C;" d="M471.979,274.873c0,0.99-0.802,1.792-1.792,1.792c-0.99,0-1.792-0.802-1.792-1.792
				c0-0.99,0.802-1.792,1.792-1.792C471.177,273.081,471.979,273.883,471.979,274.873z"/>
			<path style="fill:#2C4E6C;" d="M446.496,383.573c0,1.209-0.98,2.19-2.19,2.19s-2.19-0.98-2.19-2.19c0-1.21,0.98-2.19,2.19-2.19
				S446.496,382.363,446.496,383.573z"/>
			<path style="fill:#2C4E6C;" d="M321.471,377.998c0,0.77-0.624,1.394-1.394,1.394c-0.77,0-1.394-0.624-1.394-1.394
				c0-0.77,0.624-1.394,1.394-1.394C320.847,376.605,321.471,377.229,321.471,377.998z"/>
		</g>
		<g>
			<circle style="fill:#5698B9;" cx="475.562" cy="258.349" r="1.593"/>
			<path style="fill:#5698B9;" d="M424.199,184.688c0,0.88-0.713,1.593-1.593,1.593s-1.593-0.713-1.593-1.593
				s0.713-1.593,1.593-1.593S424.199,183.808,424.199,184.688z"/>
			<path style="fill:#5698B9;" d="M470.784,197.031c0,0.66-0.535,1.194-1.195,1.194c-0.66,0-1.194-0.535-1.194-1.194
				c0-0.66,0.535-1.195,1.194-1.195C470.25,195.836,470.784,196.371,470.784,197.031z"/>
			<circle style="fill:#5698B9;" cx="373.631" cy="113.017" r="1.194"/>
			<path style="fill:#5698B9;" d="M414.643,65.834c0,0.99-0.802,1.792-1.792,1.792c-0.99,0-1.792-0.802-1.792-1.792
				c0-0.99,0.802-1.792,1.792-1.792C413.84,64.043,414.643,64.845,414.643,65.834z"/>
			<circle style="fill:#5698B9;" cx="316.693" cy="48.514" r="1.194"/>
			<path style="fill:#5698B9;" d="M249.403,73.599c0,0.44-0.357,0.796-0.796,0.796c-0.44,0-0.796-0.357-0.796-0.796
				c0-0.44,0.357-0.796,0.796-0.796C249.046,72.802,249.403,73.159,249.403,73.599z"/>
			<path style="fill:#5698B9;" d="M158.62,50.505c0,0.22-0.178,0.398-0.398,0.398c-0.22,0-0.398-0.178-0.398-0.398
				c0-0.22,0.178-0.398,0.398-0.398C158.442,50.107,158.62,50.285,158.62,50.505z"/>
			<circle style="fill:#5698B9;" cx="149.462" cy="93.109" r="2.787"/>
			<circle style="fill:#5698B9;" cx="60.472" cy="116.8" r="1.394"/>
			<circle style="fill:#5698B9;" cx="24.039" cy="175.53" r="1.194"/>
			<path style="fill:#5698B9;" d="M52.309,214.749c0,0.99-0.802,1.792-1.792,1.792c-0.99,0-1.792-0.802-1.792-1.792
				c0-0.99,0.802-1.792,1.792-1.792C51.507,212.958,52.309,213.76,52.309,214.749z"/>
			<path style="fill:#5698B9;" d="M31.605,325.44c0,1.649-1.337,2.986-2.986,2.986c-1.649,0-2.986-1.337-2.986-2.986
				c0-1.649,1.337-2.986,2.986-2.986C30.268,322.454,31.605,323.791,31.605,325.44z"/>
			<path style="fill:#5698B9;" d="M70.227,374.813c0,1.209-0.98,2.19-2.19,2.19c-1.209,0-2.19-0.98-2.19-2.19
				c0-1.21,0.98-2.19,2.19-2.19C69.246,372.623,70.227,373.603,70.227,374.813z"/>
			<circle style="fill:#5698B9;" cx="179.325" cy="399.698" r="1.194"/>
			<path style="fill:#5698B9;" d="M241.439,427.371c0,0.99-0.802,1.792-1.792,1.792c-0.99,0-1.792-0.802-1.792-1.792
				c0-0.99,0.802-1.792,1.792-1.792C240.637,425.579,241.439,426.382,241.439,427.371z"/>
			<path style="fill:#5698B9;" d="M320.277,393.726c0,0.88-0.713,1.593-1.593,1.593c-0.88,0-1.593-0.713-1.593-1.593
				c0-0.88,0.713-1.593,1.593-1.593C319.564,392.133,320.277,392.846,320.277,393.726z"/>
			<path style="fill:#5698B9;" d="M405.883,405.472c0,0.33-0.267,0.597-0.597,0.597c-0.33,0-0.597-0.267-0.597-0.597
				c0-0.33,0.267-0.597,0.597-0.597C405.615,404.875,405.883,405.142,405.883,405.472z"/>
			<circle style="fill:#5698B9;" cx="465.608" cy="370.632" r="2.389"/>
		</g>
		<g>
			<polygon style="fill:#D0D0D0;" points="274.786,355.393 215.738,355.393 205.838,391.183 284.687,391.183 			"/>
			<g>
				<polygon style="fill:#C3C3C3;" points="274.786,355.393 215.738,355.393 213.126,364.835 277.398,364.835 				"/>
				<polygon style="fill:#C3C3C3;" points="205.838,391.183 284.687,391.183 282.756,384.204 207.769,384.204 				"/>
			</g>
			<path style="fill:#EBEBEB;" d="M292.582,388.822h-95.003c-1.66,0-3.005,1.345-3.005,3.005v2.445h101.013v-2.445
				C295.587,390.167,294.242,388.822,292.582,388.822z"/>
			<path style="fill:#EBEBEB;" d="M97.529,331.831v18.206c0,4.343,3.52,7.863,7.864,7.863h279.714c4.343,0,7.863-3.52,7.863-7.863
				v-18.206H97.529z"/>
			<path style="fill:#393D45;" d="M392.969,163.783c0-4.343-3.52-7.863-7.863-7.863H105.392c-4.343,0-7.864,3.52-7.864,7.863
				v168.048h295.44V163.783z"/>
			<rect x="109.204" y="166.839" style="fill:#DFF3FF;" width="274.334" height="154.706"/>
			<rect x="257.024" y="184.827" style="fill:#C1073F;" width="112.681" height="81.326"/>
			<rect x="109.204" y="166.839" style="fill:#3D6C87;" width="274.334" height="10.78"/>
			<g>
				<path style="fill:#FFFFFF;" d="M116.94,172.445c0,0.689-0.559,1.248-1.248,1.248c-0.689,0-1.248-0.559-1.248-1.248
					s0.559-1.248,1.248-1.248C116.381,171.197,116.94,171.756,116.94,172.445z"/>
				<circle style="fill:#FFFFFF;" cx="123.357" cy="172.445" r="1.248"/>
				<circle style="fill:#FFFFFF;" cx="131.021" cy="172.445" r="1.248"/>
			</g>
			<rect x="117.612" y="184.827" style="fill:#3D6C87;" width="127.308" height="81.326"/>
			<g>
				<rect x="118.706" y="271.118" style="fill:#233D4C;" width="69.288" height="4.687"/>
				<rect x="118.706" y="281.523" style="fill:#233D4C;" width="69.288" height="4.687"/>
				<rect x="118.706" y="291.928" style="fill:#233D4C;" width="69.288" height="4.686"/>
				<rect x="118.706" y="302.332" style="fill:#233D4C;" width="69.288" height="4.686"/>
				<rect x="118.706" y="312.737" style="fill:#233D4C;" width="69.288" height="4.686"/>
				<rect x="200.695" y="271.118" style="fill:#233D4C;" width="43.925" height="4.687"/>
				<rect x="200.695" y="281.523" style="fill:#233D4C;" width="43.925" height="4.687"/>
				<rect x="200.695" y="291.928" style="fill:#233D4C;" width="43.925" height="4.686"/>
				<rect x="200.695" y="302.332" style="fill:#233D4C;" width="43.925" height="4.686"/>
				<rect x="200.695" y="312.737" style="fill:#233D4C;" width="43.925" height="4.686"/>
			</g>
			<polygon style="fill:#FFFFFF;" points="193.367,224.312 173.514,212.85 173.514,235.775 			"/>
			<g>
				<path style="fill:#FFFFFF;" d="M300.312,237.316l-13.342-23.109c-0.246-0.426-0.861-0.426-1.107,0l-13.342,23.109
					c-0.246,0.426,0.061,0.958,0.553,0.958h26.684C300.251,238.274,300.558,237.742,300.312,237.316z"/>
				<path style="fill:none;stroke:#FFFFFF;stroke-width:0.7744;stroke-miterlimit:10;" d="M302.591,238.613l-15.53-26.898
					c-0.286-0.496-1.002-0.496-1.288,0l-15.53,26.898c-0.286,0.496,0.072,1.115,0.644,1.115h31.059
					C302.519,239.728,302.877,239.108,302.591,238.613z"/>
				<g>
					<path style="fill:#C1073F;" d="M286.475,233.89c-0.817,0-1.366-0.549-1.366-1.232c0-0.709,0.549-1.258,1.366-1.258
						c0.803,0,1.352,0.549,1.352,1.258C287.827,233.341,287.278,233.89,286.475,233.89z M285.203,224.05h2.477l-0.268,6.413h-1.941
						L285.203,224.05z"/>
				</g>
			</g>
			<g>
				<rect x="257.024" y="272.066" style="fill:#3D6C87;" width="112.681" height="46.133"/>
				<line style="fill:none;stroke:#DFF3FF;stroke-miterlimit:10;" x1="372.177" y1="271.121" x2="255.597" y2="318.825"/>
				<line style="fill:none;stroke:#DFF3FF;stroke-miterlimit:10;" x1="255.597" y1="271.121" x2="372.177" y2="318.825"/>
			</g>
			<path style="fill:#C7C7C7;" d="M250.5,344.195c0,2.594-2.102,4.696-4.696,4.696c-2.594,0-4.696-2.102-4.696-4.696
				c0-2.593,2.102-4.696,4.696-4.696C248.397,339.5,250.5,341.602,250.5,344.195z"/>
			<path style="opacity:0.09;fill:#FFFFFF;" d="M392.969,163.783c0-4.342-3.52-7.863-7.863-7.863H105.392
				c-2.211,0-4.205,0.915-5.634,2.384l293.211,160.579V163.783z"/>
		</g>
		<g>
			<ellipse style="fill:#DDEDEE;" cx="360.76" cy="443.265" rx="37.336" ry="5.914"/>
			<g>
				<path style="fill:#2C4E6C;" d="M400.68,225.049l-4.979-14.607l-13.235,2.935c-2.023-3.117-4.47-5.87-7.235-8.209l4.61-12.765
					l-13.849-6.808l-7.299,11.459c-3.535-0.754-7.202-1.005-10.898-0.7l-5.773-12.3l-14.607,4.979l2.941,13.265
					c-3.113,2.016-5.864,4.454-8.202,7.21l-12.778-4.615l-6.808,13.849l11.447,7.291c-0.761,3.541-1.017,7.216-0.715,10.919
					l-12.272,5.76l4.979,14.607l13.216-2.93c2.022,3.13,4.471,5.896,7.24,8.245l-3.505,10.292l12.758,9.241l7.261-11.399
					c3.557,0.765,7.25,1.02,10.971,0.712l5.738,12.227l14.607-4.979l-2.924-13.187c3.134-2.029,5.903-4.486,8.252-7.264
					l12.711,4.591l6.808-13.849l-11.411-7.269c0.758-3.551,1.008-7.236,0.697-10.95L400.68,225.049z M358.209,255.46
					c-11.898,4.055-24.83-2.302-28.886-14.2s2.302-24.83,14.2-28.886c11.898-4.055,24.83,2.302,28.886,14.2
					C376.464,238.472,370.106,251.404,358.209,255.46z"/>
				<g>
					<path id="path39759_6_" style="fill:#D16E28;" d="M345.563,299.5c0,6.337,5.455,13.838,12.184,13.838
						s12.183-7.501,12.183-13.838s-0.862-11.002-12.183-11.002S345.563,293.163,345.563,299.5z"/>
					
						<ellipse id="ellipse39769_6_" transform="matrix(0.4268 -0.9044 0.9044 0.4268 -70.5827 495.2238)" style="fill:#E9A890;" cx="355.346" cy="303.288" rx="11.379" ry="10.607"/>
					<path id="rect39745_6_" style="fill:#E49B82;" d="M357.198,305.739h-2.483c-1.616,0-2.926,1.31-2.926,2.926v8.074
						c0,1.616,1.31,2.926,2.926,2.926h2.483c1.616,0,2.926-1.31,2.926-2.926v-8.074
						C360.124,307.048,358.814,305.739,357.198,305.739z"/>
					<path id="path39771_6_" style="fill:#D16E28;" d="M350.882,290.814c9.228,0,12.926,3.309,12.926,3.309l3.806,7.385
						l-1.376,7.038c0,0-2.169,3.56-3.837,4.386c-1.668,0.825-5.293,1.309-8.15,0.041c-2.857-1.268-5.697-7.617-5.697-7.617
						l-1.047-6.524c0,0-6.228-0.22-2.934-1.868c1.918-0.959,1.367-4.159,3.521-6.042
						C348.962,290.854,349.888,290.814,350.882,290.814L350.882,290.814z"/>
					<path id="ellipse39773_6_" style="fill:#E9A890;" d="M348.542,300.849c-1.16,0-2.164,1.536-2.24,3.431
						c-0.077,1.895,0.801,3.432,1.962,3.432c1.161,0,2.164-1.536,2.241-3.432S349.702,300.849,348.542,300.849z"/>
					<path id="path39775_3_" style="fill:#D16E28;" d="M364.054,291.875c0,2.371,4.15,11.822,4.879,11.822
						c0.73,0,1.345-7.465,1.345-9.836s-1.622-4.485-3.297-4.485C364.04,289.376,364.054,289.504,364.054,291.875z"/>
					<path id="path39777_6_" style="fill:#D16E28;" d="M346.699,292.752c0,0.77,6.574,0.844,10.879,0.844
						c4.305,0,7.794-0.4,7.794-3.534c0-3.134-3.49-3.534-7.794-3.534C349.638,286.527,346.699,291.982,346.699,292.752z"/>
				</g>
				<path style="fill:#E9A890;" d="M341.787,397.362l0.409-37.504l15.696-0.003c0.149,11.902-2.095,28.583-4.774,39.783
					L341.787,397.362z"/>
				<path style="fill:#E9A890;" d="M353.078,399.055c1.898,13.74,0.881,26.244-1.316,41.665l-2.582-0.014l-7.393-43.343
					L353.078,399.055z"/>
				<path style="fill:#E9A890;" d="M374.205,397.199c4.957,13.479,6.567,25.945,8.078,42.049l-2.522,0.708l-16.521-41.922
					L374.205,397.199z"/>
				<path style="fill:#E1A9C5;" d="M363.24,398.033l-11.864-38.178H369.2c4.142,12.234,3.685,26.087,5.037,38.181L363.24,398.033z"
					/>
				<path style="fill:#E27B2C;" d="M369.591,359.856c-2.619-6.073-8.319-11.689-8.319-11.689h-17.019
					c-4.697,11.795-4.879,29.893-3.718,49.867l35.324,0.004C374.563,385.943,373.422,368.738,369.591,359.856z"/>
				<path style="fill:#DC9CC0;" d="M344.226,348.166c0-6.776-0.694-24.127-0.416-29.803c8.458-3.881,14.27-4.463,23.517,0
					c0.307,9.507-6.055,29.803-6.055,29.803H344.226z"/>
				<path style="fill:#E9A890;" d="M329.58,303.259l-4.077-25.899l-2.28,0.147c-1.785,5.379-1.903,21.781,1.23,28.593
					L329.58,303.259z"/>
				<path style="fill:#DC9CC0;" d="M324.452,306.101c0,0,13.291,13.145,20.11,18.607l6.616-6.149l-21.82-16.709L324.452,306.101z"/>
				<path style="fill:#E9A890;" d="M372.385,278.558l2.755,21.885l5.715,1.306c0.942-6.251-3.26-17.851-6.201-24.312
					L372.385,278.558z"/>
				<path style="fill:#DC9CC0;" d="M380.855,301.749c0,0-8.952,15.319-14.162,22.332l-8.53-3.503l16.869-21.697L380.855,301.749z"/>
				<polygon style="fill:#804E20;" points="382.283,439.248 379.761,439.956 377.576,442.826 374.26,443.386 374.473,445.027 
					380.059,445.027 384.244,443.852 				"/>
				<polygon style="fill:#804E20;" points="351.854,440.064 349.086,440.064 345.52,442.826 342.204,443.386 342.417,445.027 
					352.349,445.027 				"/>
				<path style="fill:#E9A890;" d="M372.36,270.913c0.031,0.916-0.571,1.958-0.571,1.958s-0.123-2.496-0.107-2.926
					c0.016-0.429-0.526-0.613-0.559-0.225c-0.033,0.388-0.459,3.883-0.419,4.398c0.039,0.516,1.682,4.439,1.682,4.439l2.269-1.121
					l0.013-3.403c0,0-0.54-2.881-0.7-3.346c-0.159-0.465-1.527-2.216-1.769-2.569c-0.242-0.353-0.589-0.301-0.415,0.215
					C371.957,268.85,372.329,269.997,372.36,270.913z"/>
				<path style="fill:#D16E28;" d="M370.113,296.792c-0.99,9.699,0.712,24.262,4.077,34.851c-4.849,2.375-18.111,4.058-22.169-1.287
					c-3.564-4.694-3.46-15.966-2.177-23.06C359.146,308.188,370.113,296.792,370.113,296.792z"/>
				<path style="fill:#E9A890;" d="M324.508,271.084c0.103,0.911,0.85,1.854,0.85,1.854s-0.242-2.488-0.319-2.91
					c-0.078-0.422,0.431-0.683,0.52-0.303c0.089,0.379,1.019,3.775,1.055,4.29c0.036,0.516-1.018,4.637-1.018,4.637l-2.408-0.779
					l-0.508-3.365c0,0,0.115-2.929,0.205-3.412c0.09-0.483,1.189-2.414,1.376-2.799c0.188-0.385,0.539-0.383,0.442,0.152
					C324.607,268.985,324.405,270.173,324.508,271.084z"/>
			</g>
		</g>
		<g>
			<g>
				<path style="fill:#D4AC84;" d="M333.093,150.821c-0.306-0.34-3.723-2.041-3.723-2.041c0.136-0.007,4.254,0.911,4.04-0.259
					c-0.035-0.192-5.533-2.181-5.723-2.334c-0.726-0.586-5.014-0.568-5.192-0.413c-2.256-2.285-8.789-8.208-10.729-9.962
					c-0.359-0.324-0.608-0.749-0.718-1.22l-4.387-18.778l-7.684,2.888l7.033,18.603c0.158,0.417,0.429,0.781,0.784,1.051
					l13.277,10.094c1.62,1.265,4.222,4.268,5.965,5.254c0.23,0.13,2.961,1.24,3.432,1.061c0.536-0.204,0.968-0.365,1.451-0.576
					c0.58-0.254,1.329-0.557,1.741-0.878c0.412-0.321,0.21-0.845,0.725-1.162S333.438,151.206,333.093,150.821z"/>
				<path style="fill:#3A666A;" d="M308.268,118.306l-5.445-14.094l-8.967,3.198c0,0,5.749,17.29,6.013,16.961
					C300.133,124.043,308.268,118.306,308.268,118.306z"/>
			</g>
			<g>
				<path style="fill:#2B3943;" d="M259.287,106.822c0,0,40.549,0.113,41.987,2.644c1.438,2.531,0.876,4.887,0.413,6.137
					c-0.462,1.25-17.35,35.219-17.35,35.219l-4.546-0.134l6.435-30.305c0,0-24.03,6.648-25.927,5.541
					C258.402,124.817,259.287,106.822,259.287,106.822z"/>
				<path style="fill:#D4AC84;" d="M296.289,98.471l17.568,2.373c0,0,0.85,4.3-0.391,4.425c-1.241,0.125-8.352,0.906-8.352,0.906
					L296.289,98.471z"/>
				<path style="fill:#2B3A44;" d="M224.255,148.214c0,0-1.195-0.664-2.832-0.974c-1.637-0.31-3.009-0.354-3.009-0.354l-1.328,8.984
					h6.638l-0.752-1.239l-2.213-0.133l1.239-2.877l1.992-1.461L224.255,148.214z"/>
				<path style="fill:#394C5B;" d="M259.01,101.986c0,0-9.529,2.585-10.643,6.459c-2.003,6.965,7.541,36.238,7.541,36.238
					l-32.115,2.429l-0.841,4.342l36.251,4.445c0,0,5.434,0.332,6.91-1.768c1.476-2.099,2.552-12.978,1.903-26.22
					c-0.49-9.997,0.49-12.529,0.49-12.529L259.01,101.986z"/>
				<path style="fill:#4D8389;" d="M308.393,99.968c-0.466-0.041-5.475-5.392-21.58-4.723c-16.104,0.669-28.331,4.135-30.105,4.895
					c-0.067,11.277,12.75,19.082,12.75,19.082s24.829-5.804,37.258-12.474C307.114,104.905,308.393,99.968,308.393,99.968z"/>
				<g>
					<g>
						<path style="fill:#E8C0A8;" d="M311.382,99.343c0,0-1.924,12.612,1.667,14.281c0.541,0.253,4.126-0.101,6.676-0.49
							c3.766-0.574,8.449-1.913,11.08-3.968c4.346-3.396,8.783-11.929,5.154-15.949C332.331,89.198,321.373,81.35,311.382,99.343z"
							/>
						<path style="fill:#E8C0A8;" d="M325.877,108.972c0.002-0.01,0.002-0.015,0.004-0.028l0.723-0.012
							c-0.911,1.894-1.308,3.849-1.824,5.703c-3.996-1.706-2.703-5.687,0.976-6.436
							C325.868,108.486,325.881,108.797,325.877,108.972C325.851,109.179,325.873,109.141,325.877,108.972z"/>
						<path style="fill:#73502A;" d="M319.336,98.564c-2.538,0.559-7.581,1.998-9.108,0.615c1.097-3.131,3.036-7.11,5.19-9.682
							c2.096-2.505,7.173-6.169,12.318-3.794c5.436,2.007,7.33,4.015,8.333,6.024c0.811,1.623,1.531,4.227,1.956,6.563
							c1.197,6.577-4.95,8.614-4.95,8.614c-1.646-0.905-0.84-6.21-2.975-6.454c-2.218-0.253-4.328,0.86-6.546,0.847
							C321.659,101.286,321.808,98.744,319.336,98.564z"/>
						<path style="fill:#E8C0A8;" d="M320.133,97.454c-1.36,1.16-2.301,3.563-1.54,4.457c0.763,0.894,2.482,0.679,3.842-0.48
							c1.359-1.159,2.84-3.166,1.761-4.296C323.385,96.286,321.492,96.295,320.133,97.454z"/>
						<g>
							
								<linearGradient id="SVGID_1_" gradientUnits="userSpaceOnUse" x1="-4379.5928" y1="-2389.7688" x2="-4379.0898" y2="-2386.5759" gradientTransform="matrix(0.3398 0.9405 -0.9405 0.3398 -430.9772 5038.1934)">
								<stop  offset="0" style="stop-color:#C9926A"/>
								<stop  offset="1" style="stop-color:#C9926A;stop-opacity:0"/>
							</linearGradient>
							<path style="fill:url(#SVGID_1_);" d="M329.477,108.561c-0.663,0.413-3.077,1.844-4.138-0.066
								c-1.061-1.91,2.277-2.723,2.277-2.723S328.975,107.696,329.477,108.561z"/>
							<path style="fill:#897035;" d="M329.435,108.029c-0.906-2.169-2.657-3.234-1.698-1.295
								C328.697,108.674,329.908,109.161,329.435,108.029z"/>
							<path style="fill:none;stroke:#4B2B19;stroke-width:0.3778;stroke-miterlimit:10;" d="M325.279,107.763
								c1.389,0.067,1.514,1.506,0.528,1.899"/>
						</g>
						<g>
							<path style="fill:#A56052;" d="M318.499,106.952c-0.45-0.092-0.875,0.158-1.189,0.428c-0.319,0.285-0.538,0.671-0.631,1.092
								c-0.21,0.844-0.07,1.749,0.101,2.64l-0.251-0.639c-0.052-0.223-0.117-0.445-0.156-0.673
								c-0.072-0.458-0.065-0.932,0.035-1.398c0.125-0.457,0.374-0.903,0.766-1.187
								C317.549,106.937,318.065,106.754,318.499,106.952z"/>
						</g>
					</g>
					<path style="fill:#73502A;" d="M327.94,86.109c1.789-0.568,7.822-0.573,11.94,8.202c4.119,8.775-6.611,12.371-5.889,18.647
						c-4.529-5.91-3.199-6.659-2.914-9.84c-1.918,2.563-2.14,1.138-0.266-1.409c-1.798,1.507-5.177,0.796-7.258-0.413
						c2.112-1.934,4.19-10.144,4.19-10.144S326.554,87.609,327.94,86.109z"/>
				</g>
			</g>
			<g>
				<path style="fill:#EFC394;" d="M317.943,155.047c-0.394-0.201-5.732-1.494-5.732-1.494c0.127-0.036,4.324-0.216,3.766-1.09
					c-0.092-0.143-5.926-0.502-6.153-0.581c-0.527-0.183-1.99-0.146-3.182,0.028c-0.74-2.171-8.168-16.213-9.452-18.635
					c-0.125-0.236-0.172-0.498-0.14-0.763l3.059-25.49l-7.294,2.618l-3.003,23.81c-0.038,0.305,0.032,0.614,0.198,0.872
					l13.189,20.496c-0.053,0.073-0.084,0.116-0.084,0.116s0.199,1.317,2.268,1.976c0,0,3.188,0.852,5.145,1.245
					c0.258,0.052,4.764,1.032,5.158,0.788c0.448-0.278,0.811-0.499,1.207-0.771c0.476-0.327,1.096-0.729,1.391-1.072
					c0.295-0.343-0.055-0.71,0.338-1.073C319.017,155.667,318.388,155.274,317.943,155.047z"/>
				<path style="fill:#6AB5BC;" d="M298.229,100.163c4.854,1.355,4.628,5.079,4.139,8.466c-0.358,2.476-4.929,20.743-4.929,20.743
					l-9.308-0.14c0,0,1.143-19.324,2.385-23.463C291.758,101.631,293.376,98.809,298.229,100.163z"/>
			</g>
		</g>
		<g>
			<g>
				<rect x="109.715" y="364.971" style="fill:#1E3146;" width="50.17" height="3.375"/>
				<rect x="113.792" y="327.969" style="fill:#1E3146;" width="50.17" height="3.375"/>
				<rect x="117.868" y="290.967" style="fill:#1E3146;" width="50.17" height="3.375"/>
				<rect x="121.945" y="253.965" style="fill:#1E3146;" width="50.169" height="3.375"/>
				<path style="fill:#1E3146;" d="M149.958,445.215l23.301-222.609c0.115-1.099,1.042-1.933,2.146-1.933l0,0
					c1.281,0,2.28,1.109,2.146,2.383L154.25,445.664c-0.115,1.099-1.042,1.934-2.146,1.934l0,0
					C150.823,447.597,149.824,446.488,149.958,445.215z"/>
				<path style="fill:#1E3146;" d="M98.584,445.215l23.301-222.609c0.115-1.099,1.041-1.933,2.146-1.933l0,0
					c1.281,0,2.28,1.109,2.146,2.383l-23.301,222.609c-0.115,1.099-1.042,1.934-2.146,1.934l0,0
					C99.45,447.597,98.451,446.488,98.584,445.215z"/>
				<rect x="105.639" y="401.973" style="fill:#1E3146;" width="50.17" height="3.375"/>
			</g>
			<g id="g39743_4_" transform="matrix(-1,0,0,1,25198.801,10807.884)">
				<path style="fill:#E49B82;" d="M25064.967-10526.267c0,0-10.922,13.88-12.939,13.439s-10.992-12.671-10.992-12.671l-2.715,1.928
					c0,0,8.277,17.915,12.314,19.252c5.928,1.962,20.57-13.55,20.57-13.55L25064.967-10526.267z"/>
				<path style="fill:#E49B82;" d="M25041.035-10525.498c0,0-1.484-2.052-2.943-2.688c-1.461-0.635-5.238-2.645-5.51-1.823
					s0.781,3.03,1.729,3.951c0.949,0.922,4.418,2.715,4.418,2.715S25040.834-10523.854,25041.035-10525.498z"/>
				<path style="fill:#919292;" d="M25015.885-10538.44l46.209,28.509l-8.131,10.885l-46.543-28.73l-1.775-0.924
					c0,0-10.152,6.921-19.102,2.804c-7.307-3.362-11.916-10.316-10.398-15.867c0.137-0.493,0.797-0.665,1.115-0.265
					c3.25,4.083,7.758,6.598,12.037,6.701c4.258,0.103,7.262-1.044,9.703-5.087c1.873-3.102,2.115-7.706-0.135-11.413
					c-2.498-4.116-6.613-6.019-11.162-7.465c-0.479-0.152-0.6-0.785-0.221-1.112c4.998-4.294,14.977-2.892,20.713,4.118
					C25013.465-10549.852,25010.455-10542.416,25015.885-10538.44z"/>
				<path style="fill:#7A7B7A;" d="M25041.801-10522.452l7.436,4.588l-6.281,11.956l2.477,1.595l-30.236-18.664
					C25027.4-10519.222,25036.607-10519.506,25041.801-10522.452z"/>
				<path style="fill:#919292;" d="M25094.912-10488.521l-45.639-29.416l-6.318,12.028l45.982,29.621l1.6,1.203
					c0,0-1.871,12.144,5.699,18.445c6.184,5.145,14.445,6.31,18.799,2.547c0.389-0.335,0.258-1.005-0.24-1.12
					c-5.086-1.174-9.297-4.157-11.234-7.975c-1.928-3.799-2.188-7.003,0.41-10.948c1.99-3.026,6.041-5.229,10.357-4.796
					c4.791,0.481,8.281,3.375,11.545,6.855c0.344,0.366,0.967,0.204,1.098-0.28c1.723-6.359-3.842-14.76-12.641-16.917
					C25106.254-10491.254,25100.84-10485.333,25094.912-10488.521z"/>
				<polygon style="fill:#7A7B7A;" points="25053.963,-10499.047 25061.965,-10509.757 25089.992,-10491.691 25084.541,-10479.119 
					25045.432,-10504.313 				"/>
				<path id="rect39745_5_" style="fill:#E49B82;" d="M25064.762-10547.596h-2.701c-1.758,0-3.184,1.425-3.184,3.184v8.786
					c0,1.758,1.426,3.183,3.184,3.183h2.701c1.76,0,3.184-1.425,3.184-3.183v-8.786
					C25067.945-10546.171,25066.521-10547.596,25064.762-10547.596z"/>
				<path id="path39755_5_" style="fill:#2E343B;" d="M25053.115-10411.305l0.617,5.481h-9.844l6.529-5.439L25053.115-10411.305z"/>
				<path id="path39757_4_" style="fill:#394C5B;" d="M25048.572-10485.859c0,0,0.441-8.745,9.291-8.745
					c8.848,0,7.635,8.745,7.635,8.745l-11.924,75.535h-4.58L25048.572-10485.859z"/>
				<path id="path39759_5_" style="fill:#CB9222;" d="M25052.102-10554.384c0,6.896,5.936,15.058,13.258,15.058
					s13.258-8.162,13.258-15.058s-0.939-11.972-13.258-11.972S25052.102-10561.279,25052.102-10554.384z"/>
				<path id="path39763_4_" style="fill:#2E343B;" d="M25075.914-10411.305l0.617,5.481h-9.844l6.531-5.439L25075.914-10411.305z"/>
				<path id="path39765_4_" style="fill:#2B3943;" d="M25061.91-10484.812c0,0-0.645-8.624,8.203-8.624
					c8.85,0,8.723,8.624,8.723,8.624l-2.555,74.487h-4.58L25061.91-10484.812z"/>
				<path id="path39767_4_" style="fill:#394C5B;" d="M25078.949-10493.66v8.657c0,0-3.092,12.154-14.938,12.342
					c-0.457-0.003-0.902-0.013-1.334-0.028c-11.201-0.694-14.154-12.313-14.154-12.313v-8.657H25078.949L25078.949-10493.66z"/>
				<path id="ellipse39769_5_" style="fill:#E9A890;" d="M25063.381-10562.495c-6.451,0-11.967,5.477-12.316,12.232
					c-0.35,6.757,4.598,12.233,11.049,12.233s11.967-5.477,12.316-12.233
					C25074.779-10557.019,25069.832-10562.495,25063.381-10562.495z"/>
				<path id="path39771_5_" style="fill:#CB9222;" d="M25057.889-10563.836c10.043,0,14.066,3.601,14.066,3.601l4.141,8.036
					l-1.496,7.658c0,0-2.359,3.874-4.176,4.772c-1.814,0.897-5.76,1.424-8.867,0.044c-3.109-1.38-6.199-8.287-6.199-8.287
					l-1.141-7.1c0,0-1.705-6.558,0.641-8.606C25055.801-10563.792,25056.809-10563.836,25057.889-10563.836L25057.889-10563.836z"/>
				<path id="ellipse39773_5_" style="fill:#E9A890;" d="M25055.344-10552.916c-1.264,0-2.355,1.672-2.438,3.733
					c-0.084,2.063,0.871,3.734,2.135,3.734c1.262,0,2.354-1.672,2.438-3.734
					C25057.563-10551.244,25056.605-10552.916,25055.344-10552.916z"/>
				<path id="path39775_1_" style="fill:#CB9222;" d="M25072.223-10562.682c0,2.58,4.516,12.864,5.309,12.864
					c0.795,0,1.465-8.123,1.465-10.702c0-2.58-1.766-4.881-3.588-4.881C25072.207-10565.4,25072.223-10565.262,25072.223-10562.682z
					"/>
				<path id="path39777_5_" style="fill:#CB9222;" d="M25053.338-10561.728c0,0.838,7.154,0.919,11.838,0.919
					s8.482-0.436,8.482-3.846s-3.799-3.846-8.482-3.846C25056.537-10568.5,25053.338-10562.565,25053.338-10561.728z"/>
				<path id="path39761_4_" style="fill:#C1073F;" d="M25063.736-10536.221c11.291,0,15.213,8.014,15.213,23.144l1.418,23.081
					c0,0-4.076,1.468-16.152,1.468c-12.074,0-19.186-3.328-19.186-3.328s0.295-6.201,3.494-21.221
					C25051.721-10528.097,25052.443-10536.221,25063.736-10536.221z"/>
				<path style="fill:#E9A890;" d="M25052.402-10526.831c0,0-6.004,16.609-8.059,16.825c-2.055,0.217-14.418-8.574-14.418-8.574
					l-1.971,2.684c0,0,13.488,14.405,17.74,14.405c6.244,0,15.27-19.327,15.27-19.327L25052.402-10526.831z"/>
				<path style="fill:#E9A890;" d="M25029.926-10518.58c0,0-2.055-1.481-3.641-1.625c-1.33-0.121-4.43,0.262-5.537,0.652
					c-0.248-0.166-0.568-0.349-0.773-0.474c0,0.865,2.203,2.452,3.393,3.028c1.189,0.577,5.045,1.189,5.045,1.189
					S25030.25-10516.955,25029.926-10518.58z"/>
				<path style="fill:#8D1330;" d="M25058.215-10534.386c-1.441,0.184-3.012,0.239-5.107,4.18
					c-1.742,3.273-5.244,11.461-5.244,11.461l9.785,5.839c0,0,1.799-2.192,4.434-8.92S25060.844-10534.721,25058.215-10534.386z"/>
			</g>
		</g>
		<polygon style="fill:#2B3A44;" points="280.851,150.424 278.34,155.114 278.218,155.906 291.291,155.906 289.73,154.536 
			284.862,153.622 283.178,150.546 		"/>
	</g>
</g>
<g id="DESIGNED_BY_FREEPIK">
	<g>
		<g id="XMLID_319_">
			<g id="XMLID_338_">
				<path id="XMLID_346_" style="fill:#A5B7C6;" d="M260.104,465.465c-0.432,0.443-0.803,0.931-1.108,1.453l-0.465-0.241
					c-0.067-0.298-0.349-0.503-0.659-0.466c-0.331,0.039-0.568,0.339-0.529,0.67s0.339,0.568,0.67,0.529
					c0.065-0.008,0.127-0.026,0.184-0.052l0.451,0.234c-0.251,0.554-0.433,1.139-0.539,1.744l0.746,0.132
					c0.23-1.306,0.85-2.507,1.792-3.473L260.104,465.465z"/>
				<path id="XMLID_345_" style="fill:#A5B7C6;" d="M265.592,463.163c-0.171,0-0.341,0.006-0.51,0.017l-0.074-0.626
					c0.188-0.149,0.296-0.389,0.266-0.645c-0.046-0.393-0.402-0.674-0.795-0.628s-0.674,0.402-0.628,0.795
					c0.03,0.254,0.189,0.461,0.405,0.564l0.073,0.624c-0.714,0.116-1.403,0.332-2.06,0.646l0.327,0.684
					c0.934-0.447,1.942-0.673,2.995-0.673c0.496,0,0.993,0.053,1.475,0.158l0.161-0.741
					C266.693,463.222,266.142,463.163,265.592,463.163z"/>
				<path id="XMLID_344_" style="fill:#A5B7C6;" d="M272.194,465.711c0.331-0.04,0.566-0.341,0.525-0.672
					c-0.04-0.331-0.341-0.566-0.672-0.526c-0.309,0.038-0.535,0.304-0.53,0.609l-0.416,0.363c-0.418-0.43-0.89-0.813-1.408-1.139
					l-0.404,0.641c1.134,0.715,2.021,1.726,2.563,2.925l0.691-0.313c-0.251-0.554-0.568-1.072-0.942-1.545l0.402-0.351
					C272.065,465.716,272.129,465.719,272.194,465.711z"/>
				<path id="XMLID_343_" style="fill:#A5B7C6;" d="M265.044,473.372c-0.386,0.023-0.775,0.035-1.157,0.035
					c-0.88,0-1.733-0.061-2.478-0.179c-0.39-0.062-0.846-0.155-1.27-0.292c1.046,1.861,3.069,3.125,5.388,3.125
					c2.855,0,5.262-1.916,5.95-4.504c-0.682,0.449-1.505,0.825-2.459,1.123C267.839,473.047,266.464,473.286,265.044,473.372z"/>
				<path id="XMLID_339_" style="fill:#A5B7C6;" d="M265.592,464.68c-3.352,0-6.08,2.666-6.08,5.943
					c0,0.426,0.046,0.849,0.137,1.261c0.674,0.483,2.706,0.89,5.348,0.731c2.879-0.173,5.297-0.957,6.672-2.159
					c-0.005-0.195-0.021-0.39-0.045-0.582C271.244,466.913,268.65,464.68,265.592,464.68z M263.432,471.194
					c-1.02,0-1.85-0.83-1.85-1.85c0-1.02,0.83-1.85,1.85-1.85c1.02,0,1.85,0.83,1.85,1.85
					C265.282,470.365,264.452,471.194,263.432,471.194z M268.17,470.286c-0.75,0-1.36-0.61-1.36-1.36s0.61-1.361,1.36-1.361
					c0.75,0,1.361,0.61,1.361,1.361S268.92,470.286,268.17,470.286z"/>
			</g>
			<path id="XMLID_336_" style="fill:#A5B7C6;" d="M281.595,466.547c-0.295-0.116-0.806-0.309-1.382-0.237
				c-0.551,0.069-0.844,0.341-0.844,1.007v0.866h2.228v1.717h-2.228v5.455h-1.932v-5.455h-1.34v-1.717h1.34v-0.888
				c0-1.68,0.896-2.783,2.568-2.783c0.642,0,1.157,0.122,1.59,0.308L281.595,466.547z"/>
			<path id="XMLID_334_" style="fill:#A5B7C6;" d="M286.298,469.879c-0.177-0.03-0.358-0.046-0.526-0.046
				c-0.896,0-1.51,0.548-1.51,1.614v3.908h-1.932v-7.172h1.873v0.785c0.451-0.673,1.14-0.977,2.021-0.977
				c0.414,0,0.848,0.128,1.094,0.337L286.298,469.879z"/>
			<path id="XMLID_331_" style="fill:#A5B7C6;" d="M293.965,471.757c0,0.222-0.015,0.489-0.037,0.651h-5.085
				c0.207,1.036,0.933,1.488,1.843,1.488c0.622,0,1.295-0.252,1.813-0.688l1.132,1.243c-0.814,0.748-1.85,1.088-3.057,1.088
				c-2.198,0-3.723-1.495-3.723-3.753c0-2.258,1.48-3.797,3.627-3.797C292.544,467.99,293.958,469.522,293.965,471.757z
				 M288.851,471.091h3.175c-0.177-0.918-0.733-1.436-1.562-1.436C289.554,469.655,289.021,470.203,288.851,471.091z"/>
			<path id="XMLID_328_" style="fill:#A5B7C6;" d="M301.618,471.757c0,0.222-0.015,0.489-0.037,0.651h-5.085
				c0.207,1.036,0.932,1.488,1.843,1.488c0.622,0,1.295-0.252,1.813-0.688l1.132,1.243c-0.814,0.748-1.85,1.088-3.057,1.088
				c-2.198,0-3.723-1.495-3.723-3.753c0-2.258,1.48-3.797,3.627-3.797C300.197,467.99,301.611,469.522,301.618,471.757z
				 M296.504,471.091h3.175c-0.178-0.918-0.733-1.436-1.562-1.436C297.207,469.655,296.674,470.203,296.504,471.091z"/>
			<path id="XMLID_325_" style="fill:#A5B7C6;" d="M309.964,471.764c0,2.154-1.495,3.775-3.471,3.775
				c-0.962,0-1.643-0.378-2.109-0.933v3.708h-1.924v-10.133h1.887v0.792c0.466-0.585,1.155-0.984,2.139-0.984
				C308.469,467.99,309.964,469.61,309.964,471.764z M304.287,471.764c0,1.132,0.747,1.976,1.843,1.976
				c1.14,0,1.85-0.881,1.85-1.976c0-1.095-0.71-1.976-1.85-1.976C305.035,469.788,304.287,470.632,304.287,471.764z"/>
			<path id="XMLID_322_" style="fill:#A5B7C6;" d="M313.068,465.836c0,0.696-0.54,1.229-1.236,1.229
				c-0.696,0-1.229-0.533-1.229-1.229c0-0.696,0.533-1.243,1.229-1.243C312.527,464.592,313.068,465.14,313.068,465.836z
				 M312.809,475.354h-1.932v-7.172h1.932V475.354z"/>
			<path id="XMLID_320_" style="fill:#A5B7C6;" d="M316.032,470.736l2.702-2.554h2.368l-3.479,3.375l3.501,3.797h-2.376
				l-2.716-2.901v2.901H314.1v-10.658h1.932V470.736z"/>
		</g>
		<g>
			<path style="fill:#A5B7C6;" d="M184.412,475.289v-1.055c-0.527,0.718-1.391,1.23-2.387,1.23c-1.846,0-3.149-1.406-3.149-3.706
				c0-2.256,1.289-3.721,3.149-3.721c0.952,0,1.816,0.469,2.387,1.245v-3.765h1.099v9.77H184.412z M184.412,473.37v-3.208
				c-0.395-0.615-1.245-1.143-2.124-1.143c-1.421,0-2.27,1.172-2.27,2.739c0,1.567,0.85,2.724,2.27,2.724
				C183.168,474.483,184.017,473.986,184.412,473.37z"/>
			<path style="fill:#A5B7C6;" d="M186.932,471.744c0-2.051,1.465-3.706,3.486-3.706c2.139,0,3.398,1.67,3.398,3.794v0.279h-5.727
				c0.088,1.333,1.025,2.446,2.549,2.446c0.805,0,1.626-0.322,2.182-0.894l0.527,0.718c-0.703,0.703-1.655,1.084-2.812,1.084
				C188.44,475.465,186.932,473.956,186.932,471.744z M190.403,468.947c-1.509,0-2.256,1.274-2.314,2.358h4.643
				C192.718,470.25,192.015,468.947,190.403,468.947z"/>
			<path style="fill:#A5B7C6;" d="M194.607,474.351l0.571-0.791c0.469,0.542,1.362,1.011,2.329,1.011c1.084,0,1.67-0.513,1.67-1.216
				c0-1.714-4.38-0.659-4.38-3.281c0-1.098,0.952-2.036,2.636-2.036c1.201,0,2.051,0.454,2.622,1.026l-0.513,0.762
				c-0.424-0.513-1.201-0.894-2.109-0.894c-0.967,0-1.567,0.483-1.567,1.113c0,1.552,4.38,0.527,4.38,3.281
				c0,1.187-0.952,2.138-2.783,2.138C196.306,475.465,195.325,475.113,194.607,474.351z"/>
			<path style="fill:#A5B7C6;" d="M201.477,466.471c0-0.41,0.337-0.747,0.732-0.747c0.41,0,0.747,0.337,0.747,0.747
				c0,0.41-0.337,0.732-0.747,0.732C201.814,467.203,201.477,466.881,201.477,466.471z M201.667,475.289v-7.075h1.099v7.075H201.667
				z"/>
			<path style="fill:#A5B7C6;" d="M204.582,477.105l0.556-0.82c0.586,0.703,1.289,0.967,2.3,0.967c1.172,0,2.27-0.571,2.27-2.124
				v-1.011c-0.513,0.718-1.377,1.26-2.373,1.26c-1.845,0-3.149-1.377-3.149-3.662c0-2.27,1.289-3.677,3.149-3.677
				c0.952,0,1.802,0.469,2.373,1.245v-1.069h1.098v6.87c0,2.344-1.641,3.076-3.369,3.076
				C206.237,478.16,205.417,477.926,204.582,477.105z M209.709,473.253v-3.091c-0.381-0.615-1.23-1.143-2.109-1.143
				c-1.421,0-2.27,1.128-2.27,2.695c0,1.553,0.849,2.695,2.27,2.695C208.478,474.41,209.328,473.868,209.709,473.253z"/>
			<path style="fill:#A5B7C6;" d="M217.413,475.289v-4.629c0-1.245-0.63-1.641-1.582-1.641c-0.865,0-1.685,0.527-2.095,1.099v5.17
				h-1.099v-7.075h1.099v1.025c0.498-0.586,1.464-1.201,2.519-1.201c1.48,0,2.256,0.747,2.256,2.285v4.966H217.413z"/>
			<path style="fill:#A5B7C6;" d="M219.932,471.744c0-2.051,1.465-3.706,3.486-3.706c2.139,0,3.398,1.67,3.398,3.794v0.279h-5.727
				c0.088,1.333,1.025,2.446,2.549,2.446c0.806,0,1.626-0.322,2.183-0.894l0.527,0.718c-0.703,0.703-1.655,1.084-2.812,1.084
				C221.441,475.465,219.932,473.956,219.932,471.744z M223.404,468.947c-1.509,0-2.256,1.274-2.314,2.358h4.643
				C225.718,470.25,225.015,468.947,223.404,468.947z"/>
			<path style="fill:#A5B7C6;" d="M233.35,475.289v-1.055c-0.527,0.718-1.392,1.23-2.388,1.23c-1.846,0-3.149-1.406-3.149-3.706
				c0-2.256,1.289-3.721,3.149-3.721c0.952,0,1.817,0.469,2.388,1.245v-3.765h1.098v9.77H233.35z M233.35,473.37v-3.208
				c-0.396-0.615-1.245-1.143-2.124-1.143c-1.421,0-2.27,1.172-2.27,2.739c0,1.567,0.849,2.724,2.27,2.724
				C232.105,474.483,232.954,473.986,233.35,473.37z"/>
			<path style="fill:#A5B7C6;" d="M239.692,475.289v-9.77h1.098v3.765c0.572-0.776,1.421-1.245,2.388-1.245
				c1.845,0,3.149,1.465,3.149,3.721c0,2.299-1.304,3.706-3.149,3.706c-0.996,0-1.86-0.513-2.388-1.23v1.055H239.692z
				 M242.9,474.483c1.436,0,2.285-1.157,2.285-2.724c0-1.568-0.85-2.739-2.285-2.739c-0.864,0-1.728,0.527-2.109,1.143v3.208
				C241.171,473.986,242.036,474.483,242.9,474.483z"/>
			<path style="fill:#A5B7C6;" d="M247.528,477.061c0.161,0.073,0.425,0.117,0.601,0.117c0.483,0,0.805-0.161,1.055-0.747
				l0.469-1.069l-2.959-7.148h1.187l2.358,5.8l2.344-5.8h1.201l-3.545,8.51c-0.425,1.025-1.143,1.421-2.08,1.435
				c-0.234,0-0.601-0.044-0.805-0.103L247.528,477.061z"/>
		</g>
	</g>
</g>
</svg>
